<?xml version="1.0" encoding="utf-8"?>
<!-- Generator: Adobe Illustrator 19.0.0, SVG Export Plug-In . SVG Version: 6.00 Build 0)  -->
<svg version="1.1" id="圖層_1" xmlns="http://www.w3.org/2000/svg" xmlns:xlink="http://www.w3.org/1999/xlink" x="0px" y="0px"
	 width="46px" height="46px" viewBox="0 0 46 46" style="enable-background:new 0 0 46 46;" xml:space="preserve">
<style type="text/css">
	.st0{fill:#FAAF3B;}
</style>
<g id="XMLID_35_">
	<g id="XMLID_42_">
		<g id="XMLID_163_">
			<path id="XMLID_167_" class="st0" d="M13.4,32.9H9.1L16.9,17H8.6v-3.9c2.4,0,4.9,0,7.3,0c2.4,0,4.9,0,7.3,0L13.4,32.9z"/>
		</g>
		<g id="XMLID_43_">
			<path id="XMLID_121_" class="st0" d="M19.8,27.2h1.5c1.7,0,2.7,1,2.7,2.8c0,1.8-1,2.8-2.7,2.8h-1.5V27.2z M21.2,32.1
				c1.2,0,1.9-0.7,1.9-2.1c0-1.4-0.7-2.1-1.9-2.1h-0.5v4.2H21.2z"/>
			<path id="XMLID_110_" class="st0" d="M27.7,31.2h-2l-0.5,1.6h-0.9l1.9-5.6h1l1.9,5.6h-0.9L27.7,31.2z M27.5,30.5l-0.2-0.8
				c-0.2-0.6-0.4-1.2-0.5-1.9h0c-0.2,0.6-0.3,1.3-0.5,1.9l-0.2,0.8H27.5z"/>
			<path id="XMLID_47_" class="st0" d="M30.6,30.7l-1.7-3.5h1l0.7,1.5c0.2,0.4,0.3,0.8,0.5,1.2h0c0.2-0.4,0.4-0.8,0.5-1.2l0.7-1.5
				h0.9l-1.7,3.5v2.1h-0.9V30.7z"/>
			<path id="XMLID_44_" class="st0" d="M33.4,32.1l0.5-0.6c0.4,0.4,1,0.7,1.5,0.7c0.7,0,1.1-0.3,1.1-0.8c0-0.5-0.4-0.7-0.9-0.9
				l-0.8-0.3c-0.5-0.2-1.2-0.7-1.2-1.5c0-0.9,0.8-1.6,1.9-1.6c0.7,0,1.3,0.3,1.7,0.7l-0.5,0.6c-0.4-0.3-0.7-0.5-1.2-0.5
				c-0.6,0-1,0.3-1,0.7c0,0.5,0.5,0.7,0.9,0.9l0.8,0.3c0.7,0.3,1.2,0.7,1.2,1.5c0,0.9-0.8,1.6-2,1.6C34.6,32.9,33.9,32.6,33.4,32.1z
				"/>
		</g>
	</g>
	<path id="XMLID_36_" class="st0" d="M23,0C10.3,0,0,10.3,0,23s10.3,23,23,23s23-10.3,23-23S35.7,0,23,0z M43.6,23
		c0,11.4-9.2,20.6-20.6,20.6S2.4,34.4,2.4,23S11.6,2.4,23,2.4S43.6,11.6,43.6,23z"/>
</g>
</svg>
