<?xml version="1.0" encoding="utf-8"?>
<!-- Generator: Adobe Illustrator 19.0.0, SVG Export Plug-In . SVG Version: 6.00 Build 0)  -->
<svg version="1.1" id="圖層_1" xmlns="http://www.w3.org/2000/svg" xmlns:xlink="http://www.w3.org/1999/xlink" x="0px" y="0px"
	 width="50px" height="44.9px" viewBox="0 0 50 44.9" style="enable-background:new 0 0 50 44.9;" xml:space="preserve">
<style type="text/css">
	.st0{fill:#FAAF3B;}
</style>
<g id="XMLID_396_">
	<g id="XMLID_187_">
		<path id="XMLID_203_" class="st0" d="M34.7,23.2c-6,0-10.9,4.9-10.9,10.9s4.9,10.9,10.9,10.9c6,0,10.9-4.9,10.9-10.9
			S40.7,23.2,34.7,23.2z M34.7,42.6c-4.7,0-8.6-3.8-8.6-8.6c0-4.7,3.8-8.6,8.6-8.6c4.7,0,8.6,3.8,8.6,8.6
			C43.3,38.8,39.5,42.6,34.7,42.6z"/>
		<path id="XMLID_200_" class="st0" d="M13.2,0C7.4,0,2.6,4.8,2.6,10.6c0,5.8,4.8,10.6,10.6,10.6c5.8,0,10.6-4.8,10.6-10.6
			C23.8,4.8,19.1,0,13.2,0z M13.2,18.9c-4.6,0-8.3-3.7-8.3-8.3c0-4.6,3.7-8.3,8.3-8.3c4.6,0,8.3,3.7,8.3,8.3
			C21.5,15.2,17.8,18.9,13.2,18.9z"/>
		<path id="XMLID_199_" class="st0" d="M21.5,39.2c-3.5,0.3-6.8-0.8-9.5-3c-2.6-2.2-4.3-5.4-4.6-8.8c0,0,0-0.1,0-0.1l2.9,3
			c0.2,0.2,0.5,0.4,0.8,0.4c0.3,0,0.6-0.1,0.8-0.3c0.5-0.4,0.5-1.2,0-1.6l-4.9-5.1c-0.2-0.2-0.5-0.4-0.8-0.4c-0.3,0-0.6,0.1-0.8,0.3
			l-5.1,4.9c-0.5,0.4-0.5,1.2,0,1.6c0.4,0.5,1.2,0.5,1.6,0l3.1-3c0,0.2,0,0.3,0,0.5c0.3,4.1,2.3,7.8,5.4,10.4
			c2.8,2.3,6.2,3.6,9.8,3.6c0.4,0,0.9,0,1.3-0.1c0.6-0.1,1.1-0.6,1.1-1.3C22.7,39.6,22.1,39.1,21.5,39.2z"/>
		<path id="XMLID_198_" class="st0" d="M49.8,16.3c-0.4-0.5-1.1-0.6-1.6-0.3l-3.8,2.6c0-0.2,0.1-0.4,0.1-0.6
			c0.3-4.2-1.1-8.3-3.9-11.4c-2.8-3.2-6.7-5-10.9-5.3c-1.7-0.1-3.4,0.1-5,0.5c-0.6,0.2-1,0.8-0.8,1.4c0.2,0.6,0.8,1,1.4,0.8
			c1.4-0.4,2.8-0.5,4.2-0.4c3.6,0.2,6.9,1.8,9.3,4.5c2.4,2.7,3.6,6.2,3.4,9.8c0,0.1,0,0.2,0,0.3l-2.5-3.6c-0.4-0.5-1.1-0.6-1.6-0.3
			c-0.5,0.4-0.6,1.1-0.3,1.6l4.2,6c0.2,0.3,0.6,0.5,0.9,0.5c0.2,0,0.5-0.1,0.7-0.2l6-4.2C50,17.6,50.2,16.8,49.8,16.3z"/>
		<g id="XMLID_193_">
			<path id="XMLID_194_" class="st0" d="M14.7,12.9h-3.1L11,15.4H9l3.1-9.6h2.3l3.1,9.6h-2L14.7,12.9z M14.3,11.4l-0.3-1
				c-0.3-1-0.6-2.1-0.8-3.1h-0.1c-0.2,1-0.5,2.1-0.8,3.1l-0.3,1H14.3z"/>
		</g>
		<g id="XMLID_188_">
			<path id="XMLID_189_" class="st0" d="M31.2,29.3h3.2c2,0,3.5,0.6,3.5,2.4c0,0.9-0.5,1.8-1.3,2.1v0.1c1,0.2,1.8,1,1.8,2.3
				c0,1.9-1.6,2.8-3.7,2.8h-3.4V29.3z M34.2,33.2c1.2,0,1.7-0.5,1.7-1.3c0-0.8-0.6-1.2-1.7-1.2h-1.1v2.4H34.2z M34.4,37.4
				c1.3,0,2-0.5,2-1.5c0-0.9-0.7-1.3-2-1.3h-1.3v2.8H34.4z"/>
		</g>
	</g>
</g>
</svg>
