<?xml version="1.0" encoding="utf-8"?>
<!-- Generator: Adobe Illustrator 19.0.0, SVG Export Plug-In . SVG Version: 6.00 Build 0)  -->
<svg version="1.1" id="圖層_1" xmlns="http://www.w3.org/2000/svg" xmlns:xlink="http://www.w3.org/1999/xlink" x="0px" y="0px"
	 viewBox="0 0 123 35" style="enable-background:new 0 0 123 35;" xml:space="preserve">
<style type="text/css">
	.st0{fill:#B4B3B3;}
	.st1{fill:#FFFFFF;}
</style>
<g id="XMLID_4669_">
	<path id="XMLID_4680_" class="st0" d="M119.2,0H0v35h119.2c2.2,0,3.8-2.3,3.8-4.5V4.3C123,2.1,121.4,0,119.2,0z"/>
	<g id="XMLID_65_">
		<path id="XMLID_66_" class="st1" d="M60.9,12.1H64c2.1,0,3.6,0.7,3.6,2.5c0,1-0.5,1.9-1.5,2.2V17c1.2,0.2,2.1,1.1,2.1,2.5
			c0,2-1.6,3-3.9,3h-3.3V12.1z M63.8,16.5c1.8,0,2.5-0.7,2.5-1.7c0-1.2-0.8-1.7-2.4-1.7h-1.6v3.4H63.8z M64.1,21.4
			c1.8,0,2.8-0.6,2.8-2c0-1.3-1-1.9-2.8-1.9h-1.8v3.9H64.1z"/>
		<path id="XMLID_75_" class="st1" d="M71,20.5c0-1.7,1.5-2.5,4.7-2.9c0-1-0.3-1.9-1.6-1.9c-0.9,0-1.7,0.4-2.3,0.8l-0.5-0.9
			c0.7-0.5,1.8-1,3-1c1.9,0,2.7,1.3,2.7,3.1v4.7H76l-0.1-0.9h0c-0.7,0.6-1.6,1.1-2.5,1.1C72,22.7,71,21.9,71,20.5z M75.7,20.6v-2.1
			c-2.6,0.3-3.5,0.9-3.5,1.9c0,0.9,0.6,1.2,1.4,1.2C74.4,21.6,75,21.3,75.7,20.6z"/>
		<path id="XMLID_78_" class="st1" d="M80,21.6l0.6-0.8c0.7,0.5,1.4,0.9,2.3,0.9c1,0,1.5-0.5,1.5-1.2c0-0.8-0.9-1.1-1.7-1.5
			c-1.1-0.4-2.3-0.9-2.3-2.2c0-1.2,1-2.2,2.6-2.2c0.9,0,1.8,0.4,2.4,0.9l-0.6,0.8c-0.5-0.4-1.1-0.7-1.8-0.7c-1,0-1.4,0.5-1.4,1.1
			c0,0.7,0.8,1,1.7,1.3c1.1,0.4,2.3,0.9,2.3,2.3c0,1.2-1,2.3-2.8,2.3C81.8,22.7,80.7,22.2,80,21.6z"/>
		<path id="XMLID_80_" class="st1" d="M88.6,12.4c0-0.5,0.4-0.8,0.9-0.8c0.5,0,0.9,0.3,0.9,0.8c0,0.5-0.4,0.8-0.9,0.8
			C89,13.2,88.6,12.9,88.6,12.4z M88.9,14.8h1.3v7.7h-1.3V14.8z"/>
		<path id="XMLID_4692_" class="st1" d="M93.6,18.7c0-2.6,1.7-4,3.7-4c1,0,1.7,0.4,2.2,0.9l-0.7,0.9c-0.5-0.4-0.9-0.7-1.5-0.7
			c-1.4,0-2.4,1.2-2.4,3s1,2.9,2.4,2.9c0.7,0,1.3-0.3,1.8-0.8l0.5,0.9c-0.7,0.6-1.6,1-2.5,1C95.2,22.7,93.6,21.2,93.6,18.7z"/>
	</g>
	<g id="XMLID_4670_" transform="translate(0,-952.36218)">
		<path id="XMLID_4671_" class="st1" d="M11.6,958.4c-1.4,0.1-1.1,1.9,0,1.9H14c0.4,1.3,0.7,2.6,1.1,3.8c0.8,3.3,1.7,6.6,2.5,9.9
			c0.1,0.4,0.5,0.7,0.9,0.7h13.9c0.4,0,0.8-0.3,0.9-0.7l2.5-10.1c0.1-0.6-0.3-1.2-0.9-1.2H16.7l-1.1-3.7c-0.1-0.4-0.5-0.7-0.9-0.7
			H11.6z M17.2,964.7h16.5l-2,8.2H19.3L17.2,964.7z M21.4,975.4c-1.6,0-2.8,1.3-2.8,2.8s1.3,2.8,2.8,2.8c1.6,0,2.8-1.3,2.8-2.8
			S22.9,975.4,21.4,975.4z M29.5,975.4c-1.6,0-2.8,1.3-2.8,2.8s1.3,2.8,2.8,2.8c1.6,0,2.8-1.3,2.8-2.8S31.1,975.4,29.5,975.4z
			 M21.4,977.3c0.5,0,0.9,0.4,0.9,0.9s-0.4,0.9-0.9,0.9c-0.5,0-0.9-0.4-0.9-0.9S20.8,977.3,21.4,977.3z M29.5,977.3
			c0.5,0,0.9,0.4,0.9,0.9s-0.4,0.9-0.9,0.9s-0.9-0.4-0.9-0.9S29,977.3,29.5,977.3z"/>
	</g>
</g>
</svg>
