<?xml version="1.0" encoding="utf-8"?>
<!-- Generator: Adobe Illustrator 19.0.0, SVG Export Plug-In . SVG Version: 6.00 Build 0)  -->
<svg version="1.1" id="圖層_1" xmlns="http://www.w3.org/2000/svg" xmlns:xlink="http://www.w3.org/1999/xlink" x="0px" y="0px"
	 viewBox="0 0 134 35" style="enable-background:new 0 0 134 35;" xml:space="preserve">
<style type="text/css">
	.st0{fill:#333333;}
	.st1{fill:#FFFFFF;}
</style>
<g id="XMLID_3007_">
	<path id="XMLID_4648_" class="st0" d="M130.3,0H0v35h130.3c2.2,0,3.7-2.3,3.7-4.5V4.3C134,2.1,132.5,0,130.3,0z"/>
	<g id="XMLID_4663_">
		<path id="XMLID_4781_" class="st1" d="M46.3,12.1h6v1.1h-4.7v3.2h3.9v1.1h-3.9v3.8h4.8v1.1h-6.1V12.1z"/>
		<path id="XMLID_4783_" class="st1" d="M55.9,14.8H57l0.1,1.1h0c0.7-0.7,1.5-1.3,2.6-1.3c1.6,0,2.3,1,2.3,3v4.9h-1.3v-4.7
			c0-1.4-0.4-2-1.5-2c-0.8,0-1.3,0.4-2.1,1.2v5.6h-1.3V14.8z"/>
		<path id="XMLID_4785_" class="st1" d="M66.2,20.1v-4.2H65v-1l1.2-0.1l0.2-2.1h1.1v2.1h2.1v1h-2.1v4.3c0,0.9,0.3,1.5,1.2,1.5
			c0.3,0,0.6-0.1,0.9-0.2l0.3,1c-0.4,0.1-0.9,0.3-1.4,0.3C66.7,22.7,66.2,21.6,66.2,20.1z"/>
		<path id="XMLID_4787_" class="st1" d="M71.9,18.7c0-2.5,1.7-4,3.5-4c1.9,0,3,1.4,3,3.6c0,0.3,0,0.5-0.1,0.7h-5.2
			c0.1,1.6,1.1,2.7,2.5,2.7c0.7,0,1.4-0.2,1.9-0.6l0.5,0.8c-0.7,0.4-1.5,0.8-2.5,0.8C73.5,22.7,71.9,21.2,71.9,18.7z M77.3,18
			c0-1.6-0.7-2.4-1.9-2.4c-1.1,0-2,0.9-2.2,2.4H77.3z"/>
		<path id="XMLID_4791_" class="st1" d="M81.7,14.8h1.1l0.1,1.4h0c0.5-1,1.3-1.6,2.2-1.6c0.3,0,0.6,0,0.8,0.2l-0.2,1.1
			c-0.3-0.1-0.4-0.1-0.7-0.1c-0.6,0-1.4,0.5-1.9,1.8v4.9h-1.3V14.8z"/>
		<path id="XMLID_4794_" class="st1" d="M88.6,14.8h1.1l0.1,0.9h0c0.7-0.6,1.6-1.1,2.4-1.1c2,0,3,1.6,3,3.9c0,2.6-1.6,4.1-3.3,4.1
			c-0.7,0-1.4-0.3-2.1-0.9l0,1.3v2.6h-1.3V14.8z M93.9,18.5c0-1.7-0.6-2.8-2-2.8c-0.6,0-1.3,0.4-2.1,1.1v4c0.7,0.6,1.4,0.8,1.9,0.8
			C93,21.6,93.9,20.5,93.9,18.5z"/>
		<path id="XMLID_4807_" class="st1" d="M98.7,14.8h1.1l0.1,1.4h0c0.5-1,1.3-1.6,2.2-1.6c0.3,0,0.6,0,0.8,0.2l-0.2,1.1
			c-0.3-0.1-0.4-0.1-0.7-0.1c-0.6,0-1.4,0.5-1.9,1.8v4.9h-1.3V14.8z"/>
		<path id="XMLID_4809_" class="st1" d="M105.4,12.4c0-0.5,0.4-0.8,0.9-0.8c0.5,0,0.9,0.3,0.9,0.8c0,0.5-0.4,0.8-0.9,0.8
			C105.8,13.2,105.4,12.9,105.4,12.4z M105.6,14.8h1.3v7.7h-1.3V14.8z"/>
		<path id="XMLID_4814_" class="st1" d="M110,21.6l0.6-0.8c0.7,0.5,1.4,0.9,2.3,0.9c1,0,1.5-0.5,1.5-1.2c0-0.8-0.9-1.1-1.7-1.5
			c-1.1-0.4-2.3-0.9-2.3-2.2c0-1.2,1-2.2,2.6-2.2c0.9,0,1.8,0.4,2.4,0.9l-0.6,0.8c-0.5-0.4-1.1-0.7-1.8-0.7c-1,0-1.4,0.5-1.4,1.1
			c0,0.7,0.8,1,1.7,1.3c1.1,0.4,2.3,0.9,2.3,2.3c0,1.2-1,2.3-2.8,2.3C111.8,22.7,110.8,22.2,110,21.6z"/>
		<path id="XMLID_4821_" class="st1" d="M118.3,18.7c0-2.5,1.7-4,3.5-4c1.9,0,3,1.4,3,3.6c0,0.3,0,0.5-0.1,0.7h-5.2
			c0.1,1.6,1.1,2.7,2.5,2.7c0.7,0,1.4-0.2,1.9-0.6l0.5,0.8c-0.7,0.4-1.5,0.8-2.5,0.8C120,22.7,118.3,21.2,118.3,18.7z M123.7,18
			c0-1.6-0.7-2.4-1.9-2.4c-1.1,0-2,0.9-2.2,2.4H123.7z"/>
	</g>
	<g id="XMLID_4612_" transform="translate(0,-952.36218)">
		<path id="XMLID_4615_" class="st1" d="M11.6,958.4c-1.4,0.1-1.1,1.9,0,1.9H14c0.4,1.3,0.7,2.6,1.1,3.8c0.8,3.3,1.7,6.6,2.5,9.9
			c0.1,0.4,0.5,0.7,0.9,0.7h13.9c0.4,0,0.8-0.3,0.9-0.7l2.5-10.1c0.1-0.6-0.3-1.2-0.9-1.2H16.7l-1.1-3.7c-0.1-0.4-0.5-0.7-0.9-0.7
			H11.6z M17.2,964.7h16.5l-2,8.2H19.3L17.2,964.7z M21.4,975.4c-1.6,0-2.8,1.3-2.8,2.8s1.3,2.8,2.8,2.8c1.6,0,2.8-1.3,2.8-2.8
			S22.9,975.4,21.4,975.4z M29.5,975.4c-1.6,0-2.8,1.3-2.8,2.8s1.3,2.8,2.8,2.8c1.6,0,2.8-1.3,2.8-2.8S31.1,975.4,29.5,975.4z
			 M21.4,977.3c0.5,0,0.9,0.4,0.9,0.9c0,0.5-0.4,0.9-0.9,0.9c-0.5,0-0.9-0.4-0.9-0.9C20.4,977.7,20.8,977.3,21.4,977.3z M29.5,977.3
			c0.5,0,0.9,0.4,0.9,0.9c0,0.5-0.4,0.9-0.9,0.9c-0.5,0-0.9-0.4-0.9-0.9C28.6,977.7,29,977.3,29.5,977.3z"/>
	</g>
</g>
</svg>
