<?xml version="1.0" encoding="utf-8"?>
<!-- Generator: Adobe Illustrator 19.0.0, SVG Export Plug-In . SVG Version: 6.00 Build 0)  -->
<svg version="1.1" id="圖層_1" xmlns="http://www.w3.org/2000/svg" xmlns:xlink="http://www.w3.org/1999/xlink" x="0px" y="0px"
	 viewBox="0 0 123 35" style="enable-background:new 0 0 123 35;" xml:space="preserve">
<style type="text/css">
	.st0{fill:#F1AB40;}
	.st1{fill:#FFFFFF;}
</style>
<g id="XMLID_4653_">
	<path id="XMLID_4664_" class="st0" d="M119.2,0H0v35h119.2c2.2,0,3.8-2.3,3.8-4.5V4.3C123,2.1,121.4,0,119.2,0z"/>
	<g id="XMLID_4027_">
		<path id="XMLID_4132_" class="st1" d="M46.3,12.1h2.9c2.3,0,3.9,0.8,3.9,3c0,2.2-1.6,3.2-3.8,3.2h-1.7v4.1h-1.3V12.1z M49.2,17.3
			c1.8,0,2.7-0.7,2.7-2.1c0-1.5-0.9-2-2.7-2h-1.5v4.1H49.2z"/>
		<path id="XMLID_4209_" class="st1" d="M56.5,14.8h1.1l0.1,1.4h0c0.5-1,1.3-1.6,2.2-1.6c0.3,0,0.6,0,0.8,0.2l-0.2,1.1
			c-0.3-0.1-0.4-0.1-0.7-0.1c-0.6,0-1.4,0.5-1.9,1.8v4.9h-1.3V14.8z"/>
		<path id="XMLID_4626_" class="st1" d="M62.7,18.7c0-2.5,1.7-4,3.5-4c1.9,0,3,1.4,3,3.6c0,0.3,0,0.5-0.1,0.7H64
			c0.1,1.6,1.1,2.7,2.5,2.7c0.7,0,1.4-0.2,1.9-0.6l0.5,0.8c-0.7,0.4-1.5,0.8-2.5,0.8C64.3,22.7,62.7,21.2,62.7,18.7z M68.1,18
			c0-1.6-0.7-2.4-1.9-2.4c-1.1,0-2,0.9-2.2,2.4H68.1z"/>
		<path id="XMLID_4760_" class="st1" d="M72.5,14.8h1.1l0.1,1.1h0c0.7-0.7,1.5-1.3,2.4-1.3c1.2,0,1.8,0.6,2.1,1.5
			c0.8-0.9,1.6-1.5,2.5-1.5c1.6,0,2.3,1,2.3,3v4.9h-1.3v-4.7c0-1.4-0.5-2-1.4-2c-0.6,0-1.2,0.4-1.9,1.2v5.6h-1.3v-4.7
			c0-1.4-0.5-2-1.4-2c-0.6,0-1.2,0.4-1.9,1.2v5.6h-1.3V14.8z"/>
		<path id="XMLID_4764_" class="st1" d="M86.7,12.4c0-0.5,0.4-0.8,0.9-0.8c0.5,0,0.9,0.3,0.9,0.8c0,0.5-0.4,0.8-0.9,0.8
			C87.1,13.2,86.7,12.9,86.7,12.4z M87,14.8h1.3v7.7H87V14.8z"/>
		<path id="XMLID_4776_" class="st1" d="M92.2,19.7v-4.9h1.3v4.7c0,1.4,0.4,2,1.4,2c0.8,0,1.3-0.4,2.1-1.3v-5.4h1.3v7.7h-1.1
			l-0.1-1.2h0c-0.7,0.8-1.5,1.4-2.5,1.4C92.9,22.7,92.2,21.6,92.2,19.7z"/>
		<path id="XMLID_4778_" class="st1" d="M102.2,14.8h1.1l0.1,1.1h0c0.7-0.7,1.5-1.3,2.4-1.3c1.2,0,1.8,0.6,2.1,1.5
			c0.8-0.9,1.6-1.5,2.5-1.5c1.6,0,2.3,1,2.3,3v4.9h-1.3v-4.7c0-1.4-0.5-2-1.4-2c-0.6,0-1.2,0.4-1.9,1.2v5.6h-1.3v-4.7
			c0-1.4-0.5-2-1.4-2c-0.6,0-1.2,0.4-1.9,1.2v5.6h-1.3V14.8z"/>
	</g>
	<g id="XMLID_4654_" transform="translate(0,-952.36218)">
		<path id="XMLID_4655_" class="st1" d="M11.6,958.4c-1.4,0.1-1.1,1.9,0,1.9H14c0.4,1.3,0.7,2.6,1.1,3.8c0.8,3.3,1.7,6.6,2.5,9.9
			c0.1,0.4,0.5,0.7,0.9,0.7h13.9c0.4,0,0.8-0.3,0.9-0.7l2.5-10.1c0.1-0.6-0.3-1.2-0.9-1.2H16.7l-1.1-3.7c-0.1-0.4-0.5-0.7-0.9-0.7
			H11.6z M17.2,964.7h16.5l-2,8.2H19.3L17.2,964.7z M21.4,975.4c-1.6,0-2.8,1.3-2.8,2.8s1.3,2.8,2.8,2.8c1.6,0,2.8-1.3,2.8-2.8
			S22.9,975.4,21.4,975.4z M29.5,975.4c-1.6,0-2.8,1.3-2.8,2.8s1.3,2.8,2.8,2.8c1.6,0,2.8-1.3,2.8-2.8S31.1,975.4,29.5,975.4z
			 M21.4,977.3c0.5,0,0.9,0.4,0.9,0.9c0,0.5-0.4,0.9-0.9,0.9c-0.5,0-0.9-0.4-0.9-0.9C20.4,977.7,20.8,977.3,21.4,977.3z M29.5,977.3
			c0.5,0,0.9,0.4,0.9,0.9c0,0.5-0.4,0.9-0.9,0.9c-0.5,0-0.9-0.4-0.9-0.9C28.6,977.7,29,977.3,29.5,977.3z"/>
	</g>
</g>
</svg>
