<?xml version="1.0" encoding="utf-8"?>
<!-- Generator: Adobe Illustrator 19.0.0, SVG Export Plug-In . SVG Version: 6.00 Build 0)  -->
<svg version="1.1" id="圖層_1" xmlns="http://www.w3.org/2000/svg" xmlns:xlink="http://www.w3.org/1999/xlink" x="0px" y="0px"
	 width="254.7px" height="62px" viewBox="0 0 254.7 62" style="enable-background:new 0 0 254.7 62;" xml:space="preserve">
<style type="text/css">
	.st0{fill:#F1AA3E;}
	.st1{fill:#898A8A;}
</style>
<g id="XMLID_67_">
	<g id="XMLID_1686_">
		<path id="XMLID_1691_" class="st0" d="M3.2,33.8c-1.3,0.4-3.1-0.5-3.1-2.4c0-1.9,0-3.7,0-5.6c0-1.3,1.3-2.7,3.1-2.4
			C5.8,12.8,12.3,5.7,23,3.3s19.6,1.3,26.7,9.6c0-0.1,0-0.2,0-0.3c0-1.8,0-3.5,0-5.3c0-0.4-0.1-0.6-0.3-0.9
			c-1.9-2.3-0.8-5.6,2.1-6.2c1.7-0.4,3.4,0.3,4.2,1.9c0.8,1.4,0.6,3.4-0.5,4.6C55.1,6.7,55,6.9,55,7.1c0,5.3,0,10.7,0,16
			c0,0.1,0,0.2,0,0.4c0.3,0.1,0.6,0.1,0.9,0.2c1,0.3,1.6,1.2,1.6,2.2c0,1.8,0,3.5,0,5.3c0,1.4-0.9,2.4-2.3,2.6c-0.2,0-0.5,0-0.7,0
			c-1.6,7.3-5.6,13.1-12,17.1c-4.4,2.7-9.3,4-14.5,3.8C22,54.4,16.6,52.4,12,48.5C7.3,44.7,4.4,39.7,3.2,33.8z M28.7,17.7
			c-1.1,0.1-2.4,0.2-3.8,0.4c-6.7,1.2-12.1,4.5-16.2,10c-0.1,0.1-0.2,0.4-0.2,0.6c0,2.1,0.2,4.3,0.9,6.3c3,9.8,12.6,15.6,21.9,14.4
			c5.2-0.7,9.6-3,13-6.9s5.2-8.5,5.2-13.7c0-0.3-0.1-0.6-0.3-0.8C44.2,21.3,37.4,18,28.7,17.7z"/>
		<g id="XMLID_1689_">
			<path id="XMLID_1690_" class="st0" d="M21.9,25.2h18L32,34.8h7.9l-2.3,6.6H18.6l7.7-9.5h-6.8L21.9,25.2z"/>
		</g>
	</g>
	<g id="XMLID_1599_">
		<path id="XMLID_1683_" class="st0" d="M191.5,55.7l-1.9-3.2h1.9l0.7,1.2c0.2,0.4,0.4,0.7,0.6,1.1h0c0.2-0.4,0.3-0.7,0.5-1.1
			l0.6-1.2h1.8l-1.9,3.4l2.1,3.3h-1.9l-0.7-1.2c-0.2-0.4-0.4-0.8-0.6-1.2h-0.1c-0.2,0.4-0.4,0.8-0.6,1.2l-0.6,1.2h-1.8L191.5,55.7z"
			/>
		<path id="XMLID_1636_" class="st0" d="M196.4,58.2l3-4.3h-2.6v-1.4h4.8v0.9l-3,4.3h3.1v1.4h-5.2V58.2z"/>
		<path id="XMLID_1621_" class="st0" d="M202.9,57.3v-7.6h1.7v7.7c0,0.4,0.2,0.5,0.4,0.5c0.1,0,0.1,0,0.2,0l0.2,1.3
			c-0.2,0.1-0.5,0.2-0.9,0.2C203.3,59.3,202.9,58.5,202.9,57.3z"/>
		<path id="XMLID_1617_" class="st0" d="M206.2,55.8c0-2.2,1.5-3.5,3.2-3.5c1.7,0,3.2,1.3,3.2,3.5c0,2.2-1.5,3.5-3.2,3.5
			C207.7,59.3,206.2,58,206.2,55.8z M210.8,55.8c0-1.3-0.5-2.1-1.4-2.1c-0.9,0-1.4,0.8-1.4,2.1c0,1.2,0.5,2,1.4,2
			C210.3,57.9,210.8,57.1,210.8,55.8z"/>
		<path id="XMLID_1613_" class="st0" d="M213.6,60.3c0-0.6,0.3-1,0.9-1.4v-0.1c-0.3-0.2-0.6-0.6-0.6-1.1c0-0.5,0.3-1,0.7-1.2v0
			c-0.4-0.3-0.9-1-0.9-1.7c0-1.6,1.3-2.4,2.7-2.4c0.4,0,0.7,0.1,1,0.2h2.4v1.3h-1.1c0.2,0.2,0.3,0.6,0.3,1c0,1.5-1.1,2.2-2.6,2.2
			c-0.3,0-0.6-0.1-0.9-0.2c-0.2,0.2-0.3,0.3-0.3,0.6c0,0.4,0.3,0.5,1,0.5h1.1c1.6,0,2.5,0.5,2.5,1.7c0,1.3-1.4,2.4-3.6,2.4
			C214.8,62,213.6,61.5,213.6,60.3z M218.3,59.9c0-0.5-0.4-0.6-1.1-0.6h-0.8c-0.4,0-0.7,0-0.9-0.1c-0.3,0.2-0.4,0.5-0.4,0.8
			c0,0.6,0.6,0.9,1.6,0.9C217.6,60.9,218.3,60.5,218.3,59.9z M217.5,54.7c0-0.8-0.4-1.2-1-1.2c-0.6,0-1,0.4-1,1.2
			c0,0.8,0.5,1.2,1,1.2C217,56,217.5,55.5,217.5,54.7z"/>
		<path id="XMLID_1609_" class="st0" d="M220.5,55.8c0-2.2,1.5-3.5,3.2-3.5c1.7,0,3.2,1.3,3.2,3.5c0,2.2-1.5,3.5-3.2,3.5
			C222,59.3,220.5,58,220.5,55.8z M225,55.8c0-1.3-0.5-2.1-1.4-2.1c-0.9,0-1.4,0.8-1.4,2.1c0,1.2,0.5,2,1.4,2
			C224.5,57.9,225,57.1,225,55.8z"/>
		<path id="XMLID_1607_" class="st0" d="M228,58.2c0-0.6,0.5-1.1,1.1-1.1c0.6,0,1.1,0.5,1.1,1.1c0,0.6-0.5,1.1-1.1,1.1
			C228.5,59.3,228,58.8,228,58.2z"/>
		<path id="XMLID_1605_" class="st0" d="M231.4,55.8c0-2.2,1.6-3.5,3.4-3.5c0.8,0,1.4,0.3,1.9,0.7l-0.8,1.1c-0.3-0.3-0.6-0.4-1-0.4
			c-1,0-1.7,0.8-1.7,2.1c0,1.2,0.7,2,1.6,2c0.5,0,0.9-0.2,1.3-0.5l0.7,1.1c-0.6,0.6-1.4,0.8-2.2,0.8C232.8,59.3,231.4,58,231.4,55.8
			z"/>
		<path id="XMLID_1602_" class="st0" d="M237.3,55.8c0-2.2,1.5-3.5,3.2-3.5c1.7,0,3.2,1.3,3.2,3.5c0,2.2-1.5,3.5-3.2,3.5
			C238.8,59.3,237.3,58,237.3,55.8z M241.9,55.8c0-1.3-0.5-2.1-1.4-2.1c-0.9,0-1.4,0.8-1.4,2.1c0,1.2,0.5,2,1.4,2
			C241.4,57.9,241.9,57.1,241.9,55.8z"/>
		<path id="XMLID_1600_" class="st0" d="M245.1,52.5h1.4l0.1,0.9h0c0.6-0.6,1.2-1.1,2-1.1c0.9,0,1.5,0.4,1.8,1.2
			c0.6-0.6,1.2-1.2,2.1-1.2c1.4,0,2.1,1,2.1,2.7v4.1H253v-3.9c0-1-0.3-1.4-0.9-1.4c-0.4,0-0.8,0.2-1.3,0.7v4.6H249v-3.9
			c0-1-0.3-1.4-0.9-1.4c-0.4,0-0.8,0.2-1.3,0.7v4.6h-1.7V52.5z"/>
	</g>
	<g id="XMLID_254_">
		<path id="XMLID_762_" class="st1" d="M77.9,14.2l-3.8,29.1h-5.5l3.8-29.1H77.9z M82,12.7h5.5v27.4l-4.9,4.4h-4.2v-4.3H82V12.7z
			 M97.8,14.2l2.9,29.1h-5.5l-2.9-29.1H97.8z"/>
		<path id="XMLID_517_" class="st1" d="M111.1,14.1h9.7l-1.7,3.5h-3.3v1.7h4.8l-1.6,3.4h-2.9l5.3,5.9l-5.9,0l-2.4-2.7l-2.9,2.7H104
			l6.2-5.9h-5.7v-3.4h6.2v-1.7h-1.2l-0.4,0.8l-5.2,0l2.7-5.8h5.2L111.1,14.1z M105,29.7h30.2v10.1l-5.7,4.7H105V29.7z M110.6,33.2
			v2.4h18.3l-1.5,3.3h-16.8v2.3h18.9v-8H110.6z M121.3,28.2V13.1h14.1v10.6l-5.2,4.6H121.3z M130.3,16.6h-3.8v8l3.8,0L130.3,16.6z"
			/>
	</g>
	<g id="XMLID_73_">
		<path id="XMLID_109_" class="st0" d="M140.9,44.8V13.6h6.1v25.1h7.3v6.2H140.9z"/>
		<path id="XMLID_104_" class="st0" d="M182.4,40.7c-3.2,3.2-7.1,4.8-11.6,4.8c-4.5,0-8.4-1.6-11.6-4.8c-3.2-3.2-4.8-7.1-4.8-11.6
			c0-4.5,1.6-8.4,4.8-11.6c3.2-3.2,7.1-4.8,11.6-4.8c4.5,0,8.4,1.6,11.6,4.8c3.2,3.2,4.8,7.1,4.8,11.6
			C187.2,33.6,185.6,37.4,182.4,40.7z M178.1,21.8c-2-2-4.5-3-7.3-3c-2.8,0-5.3,1-7.3,3c-2,2-3,4.5-3,7.3c0,2.8,1,5.3,3,7.3
			c2,2,4.4,3,7.3,3c2.8,0,5.3-1,7.3-3c2-2,3-4.4,3-7.3C181.1,26.2,180.1,23.8,178.1,21.8z"/>
		<path id="XMLID_82_" class="st0" d="M249,40.7c-3.2,3.2-7.1,4.8-11.6,4.8c-4.5,0-8.4-1.6-11.6-4.8c-3.2-3.2-4.8-7.1-4.8-11.6
			c0-4.5,1.6-8.4,4.8-11.6c3.2-3.2,7.1-4.8,11.6-4.8c4.5,0,8.4,1.6,11.6,4.8c3.2,3.2,4.8,7.1,4.8,11.6
			C253.9,33.6,252.2,37.4,249,40.7z M244.7,21.8c-2-2-4.5-3-7.3-3s-5.3,1-7.3,3c-2,2-3,4.5-3,7.3c0,2.8,1,5.3,3,7.3c2,2,4.4,3,7.3,3
			s5.3-1,7.3-3c2-2,3-4.4,3-7.3C247.7,26.2,246.7,23.8,244.7,21.8z"/>
		<path id="XMLID_75_" class="st0" d="M214,26h-9.7v6.1h6.8l2.1,2.6c-0.9,1.4-2,2.5-3.4,3.3c-1.6,0.9-3.3,1.4-5.2,1.4
			c-2.9,0-5.3-1-7.3-3c-2-2-3-4.5-3-7.3c0-2.8,1-5.3,3-7.3c2-2,4.5-3,7.3-3c0.7,0,1.3,0.1,1.9,0.2c0.5,0.1,1,0.2,1.5,0.4l2.6-5.6
			c-0.9-0.4-1.9-0.7-2.9-0.9c-1-0.2-2.1-0.3-3.2-0.3c-4.5,0-8.4,1.6-11.7,4.8c-3.2,3.2-4.8,7.1-4.8,11.6c0,4.5,1.6,8.4,4.8,11.6
			c3.2,3.2,7.1,4.8,11.7,4.8c4,0,7.3-1.1,9.9-3.3c2.6-2.2,4.6-5,6-8.5L214,26z"/>
	</g>
</g>
</svg>
