<?xml version="1.0" encoding="utf-8"?>
<!-- Generator: Adobe Illustrator 19.0.0, SVG Export Plug-In . SVG Version: 6.00 Build 0)  -->
<svg version="1.1" id="圖層_1" xmlns="http://www.w3.org/2000/svg" xmlns:xlink="http://www.w3.org/1999/xlink" x="0px" y="0px"
	 width="200px" height="200px" viewBox="0 0 200 200" style="enable-background:new 0 0 200 200;" xml:space="preserve">
<style type="text/css">
	.st0{fill:#59BDA8;}
	.st1{fill:#FFFFFF;}
</style>
<g id="XMLID_2364_">
	<rect id="XMLID_2299_" class="st0" width="200" height="200"/>
	<g id="XMLID_2367_">
		<g id="XMLID_2368_">
			<g id="XMLID_2410_">
				<path id="XMLID_2426_" class="st1" d="M38.3,133.7h15.5c2.1,0,3.2,1,3.2,3v3.1c-0.1,1.9-0.9,2.9-2.5,3h-4.9v2.3h9.6v1.4h-9.6
					v4.4h-3.8v-4.4h-9.6v-1.4h9.6v-2.3h-7.5L38.3,133.7 M41.6,128.4h3.8v1.6h4.7v-1.6h3.7v1.6h5.1v1.4h-5.1v1.5h-3.7v-1.5h-4.7v1.5
					h-3.8v-1.5h-5.1V130h5.1V128.4 M53.4,138.8H42.1v2.6h10.4c0.5-0.1,0.8-0.4,0.8-0.9V138.8 M52.3,135.1H42.1v2.3h11.2V136
					C53.3,135.4,52.9,135.1,52.3,135.1L52.3,135.1z"/>
				<path id="XMLID_2422_" class="st1" d="M80.7,128.8h3.7v3.4h9.3v1.4h-9.3v1.8c2.3,0.5,4.1,1.4,5.4,2.8c2.1,2.1,3.5,5.2,4.2,9.2
					l-3.7,1.4c-0.3-5.1-1.5-8.8-3.6-10.9c-0.7-0.7-1.4-1.3-2.3-1.6v8.5h4.1v1.3h-4.1v4.5h-3.7v-4.5h-2.8v-1.3h2.8v-9
					c-0.6,0-1.2,0.1-1.8,0.4c-0.5,7.8-2.4,12-5.7,12.6c-1.2-0.2-1.8-1.3-1.9-3.2c0.1-2.5,1.3-4.9,3.4-7.2c0.1-0.1,0.2-0.2,0.3-0.3
					c0.1-0.1,0.1-0.1,0.2-0.2v-0.5v-3.8h-3.7v-1.4h9.2V128.8 M72.7,147.8c1.4-0.9,2.2-4,2.5-9.3c-0.2,0.1-0.3,0.3-0.4,0.5
					c-1.9,2.2-2.9,4.3-3,6.3C71.8,146.9,72.1,147.7,72.7,147.8 M78.9,135.7c0.6-0.2,1.2-0.3,1.8-0.4v-1.7h-1.8v0.7
					C78.9,134.8,78.9,135.3,78.9,135.7z"/>
				<path id="XMLID_2415_" class="st1" d="M125.6,133.6c1.7,0.1,2.5,0.9,2.6,2.6v1.8h-2.6c0,0.1,0,0.1,0.1,0.2
					c0.1,0.3,0.1,0.5,0.1,0.8v1.2c-0.1,1.4-0.9,2.2-2.3,2.3h-14V138h-2.4v-4.4L125.6,133.6 M107.7,144.2H125
					c1.7,0.1,2.5,0.9,2.6,2.6v1.3c-0.1,1.5-1,2.2-2.7,2.3h-17.2V144.2 M123.6,128.7v1.5h5.2v1.3h-5.2v1.5H120v-1.5h-4.7v1.5h-3.6
					v-1.5h-5.2v-1.3h5.2v-1.5h3.6v1.5h4.7v-1.5H123.6 M111.5,145.5v3.6H123c0.6,0,0.9-0.2,0.9-0.6v-2.2c0-0.5-0.3-0.8-0.9-0.8H111.5
					 M113.2,138v3.1h8.1c0.5,0,0.8-0.3,0.8-0.9V139c0-0.7-0.3-1-1-1H113.2 M123.4,136.7c0.4,0,0.8,0.1,1.1,0.2v-1
					c0.1-0.7-0.2-1-0.8-1h-13v1.8H123.4z"/>
				<path id="XMLID_2411_" class="st1" d="M143.2,135.8v-1.3h7c0.1-0.2,0.2-0.5,0.3-0.9c0.1-0.3,0.1-0.6,0.2-0.8h-8.2v-1.4h4.2
					c-0.4-0.3-0.9-1-1.4-1.9c-0.1-0.1-0.1-0.1-0.1-0.1l3.3-0.9c0.2,0.4,0.6,0.9,1.2,1.6c0.3,0.5,0.8,0.6,1.3,0.3
					c2.3-1,4.4-1.6,6.4-1.7c0.8-0.1,1.4,0.1,1.7,0.6c0.3,0.5,0.1,1-0.4,1.5c-0.2,0.2-0.4,0.4-0.6,0.6h4.4v1.4h-8.1
					c-0.1,0.5-0.3,1.1-0.5,1.7h8.1v1.3h-8.6c-0.2,0.6-0.5,1.2-0.8,1.8h10.6v1.3h-11.3c-0.1,0.4-0.3,0.7-0.5,0.9c0.2,0,0.4,0,0.6,0
					c5.3,0.2,9.2,1,11.7,2.4l-2.3,3c-0.9-0.8-1.9-1.5-2.9-2v7.4h-3.6v-7.9h2.6c-1.5-0.9-3.5-1.5-6-1.9c-0.3,0-0.5,0-0.8-0.1
					c-0.5,0.7-1.1,1.3-1.8,1.9h2c0.3,4.5-2.3,7.2-7.9,7.9l-0.2-0.6c2.9-1,4.4-3,4.3-6c0,0,0,0-0.1,0.1c-0.1,0-0.1,0-0.2,0.1
					c-2.3,1.1-4,1.2-5.1,0.3c-0.5-1.5,0.2-2.7,2.1-3.6c1-0.4,2.3-0.7,3.9-0.9c0.2-0.3,0.4-0.6,0.6-1H142v-1.3h7
					c0.3-0.6,0.6-1.2,0.8-1.8L143.2,135.8 M144.9,143.1c0.6-0.4,1.4-1.3,2.4-2.6c-1.6,0.1-2.9,0.4-4,1.1c-1,0.6-1.4,1.3-1.1,2.1
					C142.6,144.3,143.5,144.1,144.9,143.1 M155.4,129.3c-1.9,0.4-3.8,1.1-5.7,2.1h3.7c0.9-0.6,1.7-1.2,2.3-1.9
					c0.1-0.1,0.1-0.2,0.1-0.2C155.8,129.2,155.7,129.2,155.4,129.3L155.4,129.3z"/>
			</g>
			<g id="XMLID_2369_">
				<path id="XMLID_2370_" class="st1" d="M127.8,85.7c-0.1-0.1-0.2-0.2-0.4-0.2c-9.1,0.6-13.3,5.6-15.1,8.6c0.5-4,0.7-7.8,0.8-11.2
					c11.6-1.1,13.1-13.7,13.2-13.8c0-0.1,0-0.3-0.1-0.4c-0.1-0.1-0.2-0.1-0.4-0.1c-8.1,1.5-11.4,7.5-12.6,11.1
					c0-6.3-0.6-10.9-0.8-12.8c9.5-4.1,9.4-17.2,9.4-17.3c0-0.1-0.1-0.3-0.2-0.4c-0.1-0.1-0.3-0.1-0.4,0c-8.3,3.5-9.8,10.4-9.9,14.5
					c-2.2-3.8-7.5-4.4-7.5-4.4c-0.2,0-0.5,0.2-0.5,0.4c-0.2,1.5,0.3,2.9,1.4,4.2c2,2.2,5.7,3.3,6.8,3.4c0.3,2,0.8,6.5,0.8,12.6
					c-1-1.3-2.6-1.9-4.7-1.9c-2,0-3.8,0.6-3.9,0.6c-0.1,0-0.2,0.1-0.3,0.2c-0.1,0.1-0.1,0.2,0,0.4c1.5,3.4,4.6,4.1,6.9,4.1
					c0.8,0,1.5-0.1,1.9-0.2c-0.2,7.4-1.1,16.5-3.8,25.8c-2-0.1-4.1-0.2-6.2-0.2c0.5-3.3,0.7-6.5,0.6-9.9c8.1-2.9,6.6-12.9,6.6-13
					c0-0.1-0.1-0.2-0.2-0.3c-0.1-0.1-0.3-0.1-0.4,0c-6.5,2.4-6.9,9.3-6.8,12c-0.7-1-2.1-2.4-4.4-2.4c-0.6,0-1.1,0.1-1.7,0.3
					c-0.1,0-0.2,0.1-0.3,0.2c-0.1,0.1-0.1,0.3,0,0.4c0.1,0.1,1.5,3.2,5,3.2c0.5,0,0.9-0.1,1.4-0.2c0.1,3.3-0.1,6.5-0.6,9.7
					c-3.1-0.1-6.4-0.2-9.6-0.2c-0.4-4.6-0.6-8.6-0.7-12.1c6.5-2.7,6.1-9.6,6.1-9.7c0-0.1-0.1-0.2-0.2-0.3c-0.1-0.1-0.2-0.1-0.4-0.1
					c-2.3,0.4-4.1,1.3-5.5,2.5c0.3-7.9,1.4-11.6,1.8-12.7c0.8,0.2,2.7,0.7,4.9,0.7c4.6,0,7.6-2,8.8-5.7c0-0.1,0-0.3-0.1-0.4
					s-0.2-0.2-0.3-0.2c0,0-0.3,0-0.7,0c-1.6,0-5.2,0.3-9.1,2.1c5.2-6.7,3.6-16.7,3.6-16.9c0-0.1-0.1-0.3-0.3-0.3
					c-0.1-0.1-0.3-0.1-0.4,0c-8,4.7-9.1,15.6-7.1,20.1c-0.3,0.8-1.7,4.7-2,14.1c-1.8,1.8-2.8,3.9-3.3,5.4c-0.6-19.5-2.9-27.7-3-28
					c3-1.1,5.1-2.8,6.2-5.2c2.1-4.3,0.4-9.2,0.3-9.4c0-0.1-0.1-0.2-0.3-0.3c-0.1,0-0.3,0-0.4,0c-4.6,2.7-6.2,6.6-6.7,9.7
					c-0.9-3.7-3.2-8.4-8.8-10.1c-0.1,0-0.3,0-0.4,0c-0.1,0.1-0.2,0.2-0.2,0.3c-1,5.8,2.4,11.2,9.3,14.9c0,0.1,0,0.1,0,0.2
					c0,0.1,2.4,8.4,3,28.4c-1.2-2.6-3.9-5.6-10-6.1c-0.1,0-0.3,0-0.4,0.1c-0.1,0.1-0.1,0.2-0.1,0.4c0,0.1,1.2,8.4,10.6,9.7
					c0,2.7,0.1,5.6,0,8.8c-5.5,0-10.5,0.2-14.2,0.5c-0.2,0-0.4,0.2-0.4,0.5c0,0.2,0.2,0.4,0.5,0.4c3.6-0.3,8.6-0.5,14.1-0.5
					c0,1,0,2,0,3c-2.8,0.1-5.4,0.3-7.4,0.5c-0.2,0-0.4,0.3-0.4,0.5c0,0.2,0.3,0.4,0.5,0.4c1.9-0.3,4.5-0.4,7.2-0.5c0,0.7,0,1.3,0,2
					c-1.9,0.1-3.5,0.3-4.6,0.5c-0.2,0.1-0.4,0.3-0.3,0.5c0,0.2,0.2,0.4,0.4,0.4c0,0,0.1,0,0.1,0c1-0.2,2.5-0.4,4.3-0.5
					c0,0.6,0,1.2-0.1,1.8c-1,0.1-2,0.2-2.8,0.3c-0.2,0-0.4,0.2-0.4,0.5c0,0.2,0.2,0.4,0.4,0.4c0,0,0,0,0.1,0
					c5.5-0.6,16-0.9,18.4-0.5c0.2,0,0.5-0.1,0.5-0.4c0-0.2-0.1-0.5-0.4-0.5c-2-0.3-9.2-0.2-14.9,0.1c0-0.6,0-1.2,0.1-1.8
					c8.2-0.4,21.5,0,25.6,0.5c0.2,0,0.5-0.1,0.5-0.4c0-0.2-0.1-0.5-0.4-0.5c-1.1-0.1-3-0.3-5.3-0.4c0.2-0.5,0.4-1,0.6-1.5
					c1.9,0.2,3.6,0.4,4.7,0.6c0,0,0.1,0,0.1,0c0.2,0,0.4-0.2,0.4-0.4c0-0.2-0.1-0.5-0.4-0.5c-1.1-0.2-2.7-0.4-4.6-0.6
					c0.4-1,0.7-2.1,1-3.1c4.6,0.2,8.4,0.5,10.8,0.8c0,0,0,0,0.1,0c0.2,0,0.4-0.2,0.4-0.4c0-0.2-0.1-0.5-0.4-0.5
					c-2.4-0.3-6.1-0.6-10.6-0.8c1.2-4.1,2-8.2,2.6-12c0.9,0.2,1.8,0.2,2.6,0.2c10,0,13.3-10.9,13.3-11C128,86,127.9,85.8,127.8,85.7
					L127.8,85.7z M108.6,86.5c0.2,2,0.3,8.9-5.7,11.3C102.8,95.8,102.9,89,108.6,86.5z M100.6,98.2c-2.2,0-3.4-1.5-3.9-2.2
					c0.3-0.1,0.6-0.1,0.9-0.1c2.1,0,3.3,1.5,3.8,2.3C101.1,98.1,100.8,98.2,100.6,98.2L100.6,98.2z M76.5,90.4
					c8.2,0.9,9.3,6.6,9.5,8.3C78.7,97.6,76.9,92.2,76.5,90.4z M101.2,109.5c-0.2,1-0.4,2-0.6,2.9c0,0,0,0,0,0
					c-2.7-0.1-5.6-0.2-8.4-0.2c-0.1-1-0.2-2-0.3-3C95,109.3,98.2,109.4,101.2,109.5L101.2,109.5z M105.6,71.2
					c-1.2,3-3.8,4.5-7.7,4.5c-1.7,0-3.3-0.3-4.2-0.5C98.6,71.5,103.9,71.2,105.6,71.2C105.5,71.2,105.5,71.2,105.6,71.2L105.6,71.2z
					 M99.2,56.5c0.3,2.8,0.9,13.2-6.3,18.2C91.5,70.8,92,61.1,99.2,56.5z M96.3,87.1c0,1.9-0.7,8.1-8.9,9.1
					C87.9,94.3,90,88.5,96.3,87.1z M89.8,53.1c0.4,1.3,1.1,4.9-0.4,8.2c-1,2.1-2.9,3.7-5.5,4.7C83.7,64.4,83.2,57.3,89.8,53.1z
					 M74.5,52.7c7.1,2.4,8.1,10.6,8.3,13.1C76.9,62.5,73.9,57.7,74.5,52.7z M87,97.2c1.2-0.1,2.3-0.3,3.2-0.7
					c0.1,3.4,0.3,7.3,0.7,11.8c-1.3,0-2.6,0-3.9,0C87.1,104.3,87,100.6,87,97.2z M87,109.3c1.3,0,2.6,0,3.9,0c0.1,1,0.2,2,0.3,3
					c-1.5,0-2.9,0-4.3,0C87,111.3,87,110.3,87,109.3L87,109.3z M87,113.2c1.4,0,2.9-0.1,4.4-0.1c0.1,0.6,0.1,1.2,0.2,1.9
					c-1.6,0-3.2,0.1-4.6,0.2C86.9,114.5,86.9,113.9,87,113.2L87,113.2z M106.4,115.3c-4.1-0.2-9.2-0.3-13.9-0.3
					c-0.1-0.6-0.1-1.3-0.2-1.9c5.2,0,10.5,0.2,14.7,0.6C106.7,114.2,106.6,114.8,106.4,115.3z M107.2,112.9
					c-1.7-0.1-3.7-0.3-5.8-0.4c0.3-1,0.5-2,0.7-3c2.1,0.1,4.2,0.1,6.1,0.2C107.9,110.8,107.6,111.8,107.2,112.9z M125.3,69.6
					c-0.4,2.5-2.6,11.3-11.9,12.4C113.9,79.7,116.1,71.6,125.3,69.6z M120.9,50.3c-0.1,2.7-1.1,12.3-8.7,15.7c0,0,0,0,0,0
					c0,0,0,0,0,0C111.9,63.4,111.6,54.5,120.9,50.3z M105.3,63.2c-0.8-0.9-1.2-1.9-1.2-3c1.5,0.2,6.4,1.4,7.2,6.1
					C110.1,66.1,107.1,65.1,105.3,63.2z M110.4,82.3c-2,0-4.5-0.5-5.9-3.1c0.6-0.2,1.8-0.4,3.1-0.4c2.6,0,4.1,1,4.7,3.1
					c0,0.1,0,0.2,0,0.3C111.9,82.2,111.2,82.3,110.4,82.3L110.4,82.3z M114.6,96.2c-0.7,0-1.5-0.1-2.2-0.2c0.8-1.9,4.2-8.6,14.4-9.5
					C126,88.7,122.5,96.2,114.6,96.2L114.6,96.2z"/>
			</g>
		</g>
	</g>
</g>
</svg>
