<?xml version="1.0" encoding="utf-8"?>
<!-- Generator: Adobe Illustrator 19.0.0, SVG Export Plug-In . SVG Version: 6.00 Build 0)  -->
<svg version="1.1" id="圖層_1" xmlns="http://www.w3.org/2000/svg" xmlns:xlink="http://www.w3.org/1999/xlink" x="0px" y="0px"
	 width="200px" height="200px" viewBox="0 0 200 200" style="enable-background:new 0 0 200 200;" xml:space="preserve">
<style type="text/css">
	.st0{fill:url(#XMLID_118_);}
	.st1{fill:#FFFFFF;}
</style>
<g id="XMLID_1837_">
	<linearGradient id="XMLID_118_" gradientUnits="userSpaceOnUse" x1="-5.0415" y1="5.6104" x2="205.0415" y2="194.3896">
		<stop  offset="0" style="stop-color:#26D0CE"/>
		<stop  offset="1" style="stop-color:#1A2980"/>
	</linearGradient>
	<rect id="XMLID_1751_" class="st0" width="200" height="200"/>
	<g id="XMLID_1752_">
		<g id="XMLID_1753_">
			<g id="XMLID_1793_">
				<path id="XMLID_1823_" class="st1" d="M59.8,126.1h-9.6l-0.2,1.1h8.6v16.9H37.3v-16.9h6.8l0.2-1.1h-8.1v-3.6h3.1l-0.2-1.5h6.1
					l0.2,1.5h5.1l0.3-1.5h6.1l-0.2,1.5h3.1L59.8,126.1 M53.3,139.3H42.5v1.4h10.8V139.3 M42.5,131.9h10.8v-1.3H42.5V131.9
					 M42.5,136.2h10.8V135H42.5V136.2z"/>
				<path id="XMLID_1806_" class="st1" d="M83.7,126.9h0.9v3.8h-5.1l-1,1h5.7v12.4H71.9v-8h-1v-4.2h1.5l1.3-1.2h-2.8v-3.8h4v-1.4
					h-3.3v-3.6h3.3v-1.3h4.8v1.3h4.3v3.6h-4.3v1.4H80l0.5-1.2h3.6L83.7,126.9 M91.1,142.1l-1.3-0.5v2.6h-4.8v-23h9.7v8.8l-1.1,0.8
					l1.1,0.8v10.5H91.1 M90.5,132.5h-1.2v5.2l1.2,0.4V132.5 M89.2,129h1.2V125h-1.2V129 M76.3,136.7h3.5v-1.4h-3.5V136.7
					 M76.3,140.9h3.5v-1.4h-3.5V140.9z"/>
				<path id="XMLID_1801_" class="st1" d="M127.6,140.1h1.8v4.1h-9.6l-2.7-3.4l-0.3,3.4h-9.8v-16.3h7.7l-0.3-1.8h6.1l0.3,1.8h7.8
					v9.8h-16.2v2.3h4.1L115,138h6l1.9,2.1h0.2l0.4-2h4.5L127.6,140.1 M127.6,123.7h1.9v4.1h-4.6l-3.4-2.5h-7.3l-3.6,2.5h-4.5v-4.1
					h1.8l3.5-2.6h12.8L127.6,123.7 M112.5,131.7h10.9V131h-10.9V131.7 M123.4,134.8v-0.7h-10.9v0.7H123.4z"/>
				<path id="XMLID_1794_" class="st1" d="M156.7,125.4h-8.6v1.8h8.6V125.4 M162.1,121.2v10h-19v-10H162.1 M147.9,136.8h-2.4v2.7
					h2.4V136.8 M152.2,132.4v11.2h-10.8v-11.2H152.2 M159.4,136.8h-2.4v2.7h2.4V136.8 M163.8,132.4v11.2h-10.8v-11.2H163.8z"/>
			</g>
			<g id="XMLID_1768_">
				<path id="XMLID_1783_" class="st1" d="M44.8,155.5h-2v1h-0.6v-1h-1.8l0.2-0.5h1.6v-0.9h-1.5l0.2-0.5h1.3v-0.9h-1.4l0.2-0.5h1.2
					v-1h-1.8l0.2-0.5h1.6v-1h-1.3l0.2-0.5h1.2v-0.8h0.6v0.8h1.2c0.1,0,0.2,0,0.3,0.1c0.1,0.1,0.1,0.2,0.1,0.3v1.1h0.4v0.5h-0.4v1.1
					c0,0.1,0,0.2-0.1,0.3c-0.1,0.1-0.2,0.1-0.3,0.1h-1.3v0.9h1.7v0.5h-1.7v0.9h2V155.5 M38.7,153.6l0.7,1.2c0.2-0.6,0.4-1.2,0.4-1.9
					h-0.9c-0.2,0-0.3,0-0.3-0.1c0-0.1,0-0.2,0-0.4l1.2-2.6h-1.2l0.1-0.5h1.4c0.2,0,0.3,0.1,0.3,0.2c0,0.1,0,0.2,0,0.4l-1.1,2.5h0.8
					c0.2,0,0.3,0,0.3,0.1c0.1,0.1,0.1,0.2,0.1,0.3c-0.1,1-0.4,1.9-0.7,2.7l0,0.1c0.1,0.2,0.2,0.4,0.3,0.5c0.1,0.1,0.3,0.3,0.4,0.4
					c0.2,0.1,0.3,0.2,0.5,0.2c0.2,0.1,0.4,0.1,0.7,0.1h3.1v0.5h-3.2c-0.3,0-0.5,0-0.7-0.1c-0.2,0-0.4-0.1-0.6-0.2
					c-0.2-0.1-0.3-0.2-0.5-0.4c-0.1-0.1-0.3-0.3-0.4-0.5c-0.1,0.2-0.2,0.4-0.4,0.6c-0.1,0.2-0.3,0.4-0.4,0.6l-0.5-0.4
					c0.4-0.5,0.6-1,0.9-1.5l-0.8-1.4L38.7,153.6 M37.3,157.3v-5.2c-0.1,0.2-0.2,0.5-0.4,0.7c-0.1,0.2-0.3,0.5-0.4,0.7l-0.2-0.8
					c0.4-0.6,0.7-1.3,1-2c0.3-0.7,0.5-1.4,0.7-2.1l0.6,0.1c-0.1,0.3-0.2,0.7-0.3,1c-0.1,0.3-0.2,0.6-0.3,0.9v6.6H37.3 M42.9,149.9v1
					h1v-0.8c0-0.1-0.1-0.2-0.2-0.2H42.9 M43.7,152.3c0.1,0,0.2-0.1,0.2-0.2v-0.8h-1v1H43.7z"/>
				<path id="XMLID_1778_" class="st1" d="M74.4,154.6l-1.6,1c0.3,0.2,0.6,0.4,0.9,0.5c0.3,0.2,0.6,0.3,1,0.5l-0.3,0.6
					c-0.2-0.1-0.5-0.2-0.8-0.4c-0.3-0.2-0.6-0.3-0.8-0.5s-0.5-0.4-0.8-0.6c-0.3-0.2-0.5-0.4-0.7-0.6v1.4c0,0.3-0.1,0.4-0.2,0.5
					c-0.1,0.1-0.3,0.1-0.5,0.1l-1.2-0.1v-0.5l1,0.1c0.1,0,0.2,0,0.3,0s0.1-0.1,0.1-0.2v-0.9l-3.1,1.5l-0.3-0.5l3.4-1.6v-1.2h-2.5
					l0.2-0.5h2.4v-0.9h-3.2v0.9c0,0.3,0,0.7,0,1c0,0.3-0.1,0.7-0.1,1s-0.2,0.7-0.3,1c-0.1,0.3-0.3,0.6-0.4,0.9l-0.5-0.3
					c0.1-0.2,0.2-0.5,0.3-0.7c0.1-0.3,0.2-0.5,0.2-0.9c0.1-0.3,0.1-0.6,0.1-1s0-0.8,0-1.2v-3.5c0-0.1,0-0.2,0.1-0.3
					c0.1-0.1,0.2-0.1,0.3-0.1h3.3v-0.5l0.6-0.1v0.6h3.2v0.5h-6.9c0,0-0.1,0-0.1,0c0,0,0,0.1,0,0.1v2.1h3.2v-0.8h-2.4l0.2-0.5h2.2
					V150h0.6v0.7h2.1c0.1,0,0.2,0,0.3,0.1c0.1,0.1,0.1,0.2,0.1,0.3v0.9h0.8v0.5h-0.8v1c0,0.1,0,0.2-0.1,0.3
					c-0.1,0.1-0.2,0.1-0.3,0.1h-2.1v0.6c0.1,0.1,0.3,0.3,0.5,0.4c0.2,0.1,0.3,0.3,0.5,0.4l1.8-1.1L74.4,154.6 M73,153.3
					C73,153.3,73.1,153.3,73,153.3c0.1-0.1,0.1-0.1,0.1-0.1v-0.8h-1.9v0.9L73,153.3 M73.1,151.2C73.1,151.2,73.1,151.1,73.1,151.2
					c-0.1-0.1-0.1-0.1-0.1-0.1h-1.7v0.8h1.9L73.1,151.2 M68.2,154l1.7,0.8l-0.4,0.5l-1.7-0.8L68.2,154z"/>
				<path id="XMLID_1771_" class="st1" d="M104.4,153.1v0.5h-1.1l-0.1,1.8h1.1v0.5h-1.1l0,0.6c0,0.2,0,0.3-0.1,0.4
					c0,0.1-0.1,0.2-0.2,0.2c-0.1,0.1-0.2,0.1-0.3,0.1c-0.1,0-0.3,0-0.4,0l-2.9-0.1v-0.5l2.9,0.1c0.1,0,0.2,0,0.2-0.1
					c0.1,0,0.1-0.1,0.1-0.2l0-0.6h-5.4c-0.1,0-0.2,0-0.3-0.1c-0.1-0.1-0.1-0.2-0.1-0.3l0.2-1.9h-1.1l0.2-0.5h1l0.2-1.9
					c0-0.1,0.1-0.2,0.1-0.3c0.1-0.1,0.2-0.1,0.3-0.1h5.5c0.1,0,0.3,0,0.3,0.1c0.1,0.1,0.1,0.2,0.1,0.3l-0.1,1.9H104.4 M102.5,155.4
					l0.1-1.8h-5.2l-0.2,1.7c0,0.1,0,0.1,0.1,0.1H102.5 M102.8,151.4C102.8,151.4,102.8,151.3,102.8,151.4c-0.1-0.1-0.1-0.1-0.1-0.1
					h-4.9c-0.1,0-0.1,0-0.1,0.1l-0.2,1.7h5.2L102.8,151.4 M98,148.7c0,0.1-0.1,0.2-0.1,0.3c0,0.1-0.1,0.2-0.2,0.4h6.6v0.5h-6.8
					c-0.2,0.3-0.4,0.7-0.6,1c-0.2,0.3-0.4,0.6-0.6,0.8l-0.5-0.4c0.2-0.2,0.3-0.4,0.5-0.6c0.2-0.2,0.3-0.5,0.5-0.7
					c0.1-0.2,0.3-0.5,0.4-0.7s0.2-0.5,0.3-0.7L98,148.7 M100.5,155.2l-1.6-1l0.4-0.4l1.6,1L100.5,155.2 M100.6,152.9l-1.5-1l0.4-0.4
					l1.6,1L100.6,152.9z"/>
				<path id="XMLID_1770_" class="st1" d="M134.1,152.6v0.5h-8.6l0.1-0.5H134.1z"/>
				<path id="XMLID_1769_" class="st1" d="M163.1,149.2v0.5h-3.2v1.9c0,0.1,0,0.3,0,0.4c0,0.1,0,0.3,0,0.4h3.6v0.5H160
					c0.1,0.5,0.3,1,0.6,1.4c0.3,0.4,0.5,0.8,0.9,1.1c0.3,0.3,0.7,0.6,1.1,0.9c0.4,0.2,0.8,0.4,1.2,0.6l-0.2,0.6
					c-0.4-0.1-0.8-0.3-1.2-0.5c-0.4-0.2-0.8-0.5-1.1-0.8c-0.3-0.3-0.7-0.7-1-1.1c-0.3-0.4-0.5-0.9-0.7-1.4c-0.3,0.9-0.7,1.6-1.4,2.2
					c-0.7,0.6-1.5,1.1-2.5,1.6l-0.3-0.5c0.5-0.2,1-0.4,1.4-0.7c0.4-0.3,0.8-0.5,1.1-0.9c0.3-0.3,0.6-0.7,0.8-1.1
					c0.2-0.4,0.4-0.8,0.5-1.3h-3.6l0.2-0.5h3.5c0-0.1,0-0.2,0-0.4c0-0.1,0-0.3,0-0.4v-1.9h-3.1l0.2-0.5L163.1,149.2z"/>
			</g>
			<g id="XMLID_1754_">
				<path id="XMLID_1767_" class="st1" d="M98.9,62.5c-0.8,0-1.3-0.5-1.3-1.3c0-1.5,0.6-2.4,1.1-2.9c0.4-0.5,0.6-0.8,0.6-1.4
					s-0.3-0.9-0.6-1.4c-0.5-0.6-1.1-1.4-1.1-2.9s0.6-2.4,1.1-2.9c0.4-0.5,0.6-0.8,0.6-1.4s-0.3-0.9-0.6-1.4
					c-0.5-0.6-1.1-1.4-1.1-2.9c0-0.8,0.5-1.3,1.3-1.3s1.3,0.5,1.3,1.3c0,0.6,0.3,0.9,0.6,1.4c0.5,0.6,1.1,1.4,1.1,2.9
					s-0.6,2.4-1.1,2.9c-0.4,0.5-0.6,0.8-0.6,1.4s0.3,0.9,0.6,1.4c0.5,0.6,1.1,1.4,1.1,2.9s-0.6,2.4-1.1,2.9
					c-0.4,0.5-0.6,0.8-0.6,1.4S99.6,62.5,98.9,62.5z"/>
				<path id="XMLID_1766_" class="st1" d="M92.9,58.2c-0.8,0-1.3-0.5-1.3-1.3c0-1,0.5-1.7,0.8-1.9c0.1-0.3,0.1-0.3,0.1-0.4
					s0-0.1-0.1-0.4c-0.3-0.4-0.8-0.9-0.8-1.9c0-1,0.5-1.7,0.8-1.9c0.1-0.3,0.1-0.3,0.1-0.4s0-0.1-0.1-0.4c-0.3-0.4-0.8-0.9-0.8-1.9
					c0-0.8,0.5-1.3,1.3-1.3s1.3,0.5,1.3,1.3c0,0.1,0,0.1,0.1,0.4c0.3,0.4,0.8,0.9,0.8,1.9c0,1-0.5,1.7-0.8,1.9
					c-0.1,0.3-0.1,0.3-0.1,0.4s0,0.1,0.1,0.4c0.3,0.4,0.8,0.9,0.8,1.9c0,1-0.5,1.7-0.8,1.9c-0.1,0.3-0.1,0.3-0.1,0.4
					C94.2,57.7,93.7,58.2,92.9,58.2z"/>
				<path id="XMLID_1765_" class="st1" d="M105.6,58.2c-0.8,0-1.3-0.5-1.3-1.3c0-1,0.5-1.7,0.8-1.9c0.1-0.3,0.1-0.3,0.1-0.4
					s0-0.1-0.1-0.4c-0.3-0.4-0.8-0.9-0.8-1.9c0-1,0.5-1.7,0.8-1.9c0.1-0.3,0.1-0.3,0.1-0.4s0-0.1-0.1-0.4c-0.3-0.4-0.8-0.9-0.8-1.9
					c0-0.8,0.5-1.3,1.3-1.3s1.3,0.5,1.3,1.3c0,0.1,0,0.1,0.1,0.4c0.3,0.4,0.8,0.9,0.8,1.9c0,1-0.5,1.7-0.8,1.9
					c-0.1,0.3-0.1,0.3-0.1,0.4s0,0.1,0.1,0.4c0.3,0.4,0.8,0.9,0.8,1.9c0,1-0.5,1.7-0.8,1.9c-0.1,0.3-0.1,0.3-0.1,0.4
					C106.9,57.7,106.4,58.2,105.6,58.2z"/>
				<path id="XMLID_1762_" class="st1" d="M130,111.9H69.5c-0.5,0-0.9-0.3-1.1-0.8l-3.6-7.7c-0.1-0.4-0.1-0.9,0.1-1.3
					c0.3-0.4,0.6-0.6,1-0.6h67.6c0.4,0,0.9,0.3,1,0.6c0.1,0.4,0.3,0.8,0.1,1.3l-3.6,7.7C130.9,111.7,130.5,111.9,130,111.9z
					 M70.3,109.4h58.8l2.4-5.2H68L70.3,109.4z"/>
				<path id="XMLID_1761_" class="st1" d="M129.5,104.1c-0.8,0-1.3-0.5-1.3-1.3c0-15.6-12.7-28.5-28.5-28.5S71.3,87,71.3,102.8
					c0,0.8-0.5,1.3-1.3,1.3s-1.3-0.5-1.3-1.3c0-17.1,13.8-31,31-31s31,13.8,31,31C130.8,103.6,130.1,104.1,129.5,104.1z"/>
				<path id="XMLID_1760_" class="st1" d="M78.6,91c-0.3,0-0.5-0.1-0.8-0.3c-0.6-0.4-0.8-1.1-0.4-1.8c4.1-5.8,9.9-10.2,16.8-12.2
					c0.6-0.3,1.4,0.1,1.5,0.9c0.3,0.6-0.1,1.4-0.9,1.5c-6.2,1.9-11.7,5.8-15.4,11.2C79.3,90.9,78.9,91,78.6,91L78.6,91z"/>
				<path id="XMLID_1755_" class="st1" d="M99.8,74.3c-2.9,0-5.2-2.3-5.2-5.2s2.3-5.2,5.2-5.2s5.2,2.3,5.2,5.2S102.7,74.3,99.8,74.3
					z M99.8,66.5c-1.5,0-2.7,1.1-2.7,2.7c0,1.5,1.1,2.7,2.7,2.7s2.7-1.1,2.7-2.7C102.4,67.6,101.3,66.5,99.8,66.5z"/>
			</g>
		</g>
	</g>
</g>
</svg>
