<?xml version="1.0" encoding="utf-8"?>
<!-- Generator: Adobe Illustrator 19.0.0, SVG Export Plug-In . SVG Version: 6.00 Build 0)  -->
<svg version="1.1" id="圖層_1" xmlns="http://www.w3.org/2000/svg" xmlns:xlink="http://www.w3.org/1999/xlink" x="0px" y="0px"
	 width="200px" height="200px" viewBox="0 0 200 200" style="enable-background:new 0 0 200 200;" xml:space="preserve">
<style type="text/css">
	.st0{fill:#656565;}
	.st1{fill:#FFFFFF;}
</style>
<g id="XMLID_2073_">
	<rect id="XMLID_204_" class="st0" width="200" height="200"/>
	<g id="XMLID_373_">
		<g id="XMLID_889_">
			<g id="XMLID_2038_">
				<path id="XMLID_2063_" class="st1" d="M49.6,141.4l-3.2-2.7l1.3-1.2l-10.9,0.3l-0.2-2.8l10.2-0.3v-1.2H39
					c-0.4,0-0.6-0.1-0.9-0.4c-0.2-0.3-0.4-0.5-0.4-0.9v-6.7c0-0.3,0.1-0.6,0.4-0.9c0.2-0.3,0.5-0.4,0.9-0.4h7.7v-0.7H36.4l0.7-2.6
					h9.7v-0.7h3.7v0.7h10.4v2.6H50.5v0.7h7.7c0.4,0,0.6,0.1,0.9,0.4c0.2,0.3,0.4,0.5,0.4,0.9v6.7c0,0.3-0.1,0.6-0.4,0.9
					c-0.2,0.3-0.5,0.4-0.9,0.4h-0.6l2.9,3.3l-2.9,1.7l-1.2-1.4l-6.9,0.2l2.2,1.7L49.6,141.4 M50.6,141.8c0.5,0,0.9-0.1,1.1-0.2
					c0.2-0.1,0.3-0.4,0.4-0.9l0.2-1.3l3.7,0.8l-0.6,2.9c-0.1,0.7-0.4,1.2-0.8,1.5c-0.4,0.3-1,0.5-1.6,0.5h-8.6
					c-0.9,0-1.6-0.2-2.1-0.7c-0.5-0.5-0.7-1.2-0.7-2.1v-4.3h3.7v2.9c0,0.6,0.3,0.9,0.9,0.9L50.6,141.8 M36.3,143.7l1.1-5.4l3.5,0.7
					l-1.1,5.5L36.3,143.7 M57.4,144.6l-1.3-5.3l3.5-0.9l1.3,5.3L57.4,144.6 M50.5,134.6l3.9-0.1l-0.4-0.5l1.4-0.6h-4.9V134.6
					 M41.5,127.8h5.3v-0.7h-5c-0.2,0-0.3,0.1-0.3,0.3L41.5,127.8 M55.8,127.4c0-0.2-0.1-0.3-0.3-0.3h-5v0.7h5.3L55.8,127.4
					 M55.5,130.7c0.2,0,0.3-0.1,0.3-0.3v-0.4h-5.3v0.7H55.5 M41.5,130.5c0,0.2,0.1,0.3,0.3,0.3h5v-0.7h-5.3L41.5,130.5z"/>
				<path id="XMLID_2055_" class="st1" d="M89.9,120.5l1.9,3.7l-2,1h5v3.3H91v2h3.6v3.3H91v1.9h3.6v3.3H91v2h4.1v3.2H84.4v1.2h-3.7
					v-12.1c-0.2,0.2-0.4,0.5-0.5,0.7c-0.2,0.2-0.3,0.4-0.5,0.6l-1.6-3.1c0.4-0.7,0.9-1.5,1.3-2.4c0.4-0.9,0.9-1.8,1.3-2.7
					c0.4-0.9,0.8-1.9,1.1-2.9c0.3-1,0.6-2,0.8-2.9l3.8,0.8c-0.2,0.6-0.3,1.2-0.6,1.9c-0.2,0.7-0.5,1.4-0.8,2.1h3.1l-1.5-3
					L89.9,120.5 M80.1,126.6l-4.8,9.9l3.6-0.4v3.1l-6.1,0.8c-0.4,0.1-0.8,0-1.1-0.1c-0.3-0.1-0.5-0.3-0.7-0.6
					c-0.2-0.3-0.2-0.6-0.2-0.9c0-0.4,0.1-0.7,0.3-1.1l2.8-5.9l-1.9,0.3c-0.3,0.1-0.6,0-0.9-0.1c-0.2-0.1-0.4-0.3-0.6-0.5
					c-0.1-0.2-0.2-0.5-0.2-0.8c0-0.3,0-0.6,0.2-0.9l3.4-9l3.4,1.3l-3.3,7l1.1-0.1l1.6-3.3L80.1,126.6 M79.4,143.8l-8.1,1.3l-0.6-3.2
					l8.3-1.3L79.4,143.8 M84.4,140.8h2.9v-2h-2.9V140.8 M84.4,130.4h2.9v-2h-2.9V130.4 M84.4,135.5h2.9v-1.9h-2.9V135.5z"/>
				<path id="XMLID_2044_" class="st1" d="M125.4,126l0.7,3.7v-5.2c0-0.1,0-0.2-0.1-0.2c-0.1-0.1-0.1-0.1-0.2-0.1h-2.3l0.4-3h3.7
					c0.5,0,0.8,0.2,1.2,0.5c0.3,0.3,0.5,0.7,0.5,1.2v19.8c0,0.8-0.3,1.4-0.8,1.8c-0.5,0.4-1.1,0.6-1.9,0.5l-2.9-0.3v-2.8l1.6,0.1
					c0.3,0,0.5,0,0.6-0.2c0.1-0.2,0.2-0.4,0.2-0.7v-3.5c-0.3,0.4-0.5,0.7-0.8,1.1c-0.3,0.3-0.5,0.7-0.8,1l-1.3-1.1v4
					c0,0.8-0.3,1.4-0.8,1.8c-0.5,0.4-1.1,0.6-1.9,0.5l-2.9-0.3v-2.8l1.6,0.1c0.3,0,0.5,0,0.6-0.2c0.1-0.2,0.2-0.4,0.2-0.7v-3.4
					l-1.5,2l-1.8-1.6v7.1h-3.2v-0.7h-5.2v0.7h-3.2v-9.3c0-0.3,0.1-0.6,0.4-0.9s0.5-0.4,0.8-0.4h9.3c0.3,0,0.6,0.1,0.8,0.4
					s0.4,0.5,0.4,0.9v1.8c0.6-0.8,1.2-1.5,1.7-2.3s1.1-1.5,1.6-2.4v-1.5l-1.6,0.7l-1-5.6l1.9-0.7l0.7,3.7v-5.2c0-0.1,0-0.2-0.1-0.2
					c-0.1-0.1-0.1-0.1-0.2-0.1h-2.3l0.4-3h3.7c0.5,0,0.8,0.2,1.2,0.5c0.3,0.3,0.5,0.7,0.5,1.2V137c1-1.3,2-2.6,2.8-4v-1.4l-1.6,0.7
					l-1-5.6L125.4,126 M106.6,124c-0.2,0-0.4,0-0.6,0c-0.2,0-0.4,0-0.6,0l-0.4-3c0.8,0,1.6,0,2.6,0c0.9,0,1.9-0.1,2.9-0.1
					c1-0.1,1.9-0.1,2.9-0.2c0.9-0.1,1.8-0.2,2.5-0.3l0.5,3c-0.5,0.1-1.1,0.2-1.7,0.2c-0.6,0.1-1.3,0.1-2,0.2v3h1.3l-1.1-1l1.8-2.2
					l1.9,1.7l-1.2,1.4h1.7v3h-2.6l2.8,2.3l-1.9,2.5l-2.7-2.7v2.2h-3.6v-2.2c-0.4,0.5-0.8,1-1.3,1.5c-0.4,0.5-0.9,0.9-1.4,1.3
					l-1.9-2.3c0.3-0.2,0.7-0.6,1.1-1c0.4-0.4,0.8-0.9,1.2-1.4h-2.4l0.7-3h1l-1.2-1.4L106.6,124 M107.3,124l1.5,1.8l-1.1,1h1.4V124
					L107.3,124 M108.3,141.8h1v-1h-1V141.8 M108.3,138.5h1v-1.1h-0.6c-0.3,0-0.5,0.2-0.5,0.5L108.3,138.5 M112.5,141.8h1v-1h-1
					V141.8 M112.5,137.4v1.1h1V138c0-0.4-0.2-0.6-0.5-0.6H112.5z"/>
				<path id="XMLID_2039_" class="st1" d="M152.2,124.4c0.3,0.4,0.8,0.8,1.3,1.2c0.5,0.4,1.1,0.8,1.7,1.1c0.6-0.4,1.2-0.8,1.7-1.2
					c0.5-0.4,0.9-0.9,1.3-1.3h-10.1l0.7-3.3h11.7c0.5,0,0.9,0.1,1.2,0.2c0.4,0.1,0.7,0.3,0.9,0.6c0.2,0.2,0.4,0.5,0.5,0.9
					c0.1,0.3,0,0.7-0.1,1.1c-0.3,0.9-0.9,1.8-1.6,2.6c-0.7,0.8-1.6,1.6-2.5,2.3c0.8,0.4,1.7,0.7,2.5,1c0.8,0.3,1.6,0.5,2.4,0.7
					l-1.7,3.1c-1-0.2-2.1-0.5-3.3-1c-1.2-0.4-2.3-1-3.5-1.6c-1.1,0.6-2.2,1-3.3,1.5c-1.1,0.4-2.2,0.8-3.3,1.1l-1.7-3.1
					c0.8-0.2,1.5-0.4,2.3-0.7c0.8-0.3,1.6-0.6,2.4-0.9c-0.5-0.4-1-0.8-1.5-1.3c-0.5-0.4-1-0.9-1.4-1.4L152.2,124.4 M157.4,132.1v2
					h5.1v3.3h-5.1v1.6h6v3.3h-6v3h-3.7v-3h-6l0.7-3.3h5.3v-1.6h-5.1l0.7-3.3h4.4v-2H157.4 M145.2,141.1c0,0.2,0,0.4,0.1,0.5
					c0.1,0.1,0.2,0.1,0.5,0.1l1.4-0.3v3l-3.7,0.6c-0.4,0.1-0.7,0-1-0.1c-0.3-0.1-0.5-0.2-0.6-0.4c-0.2-0.2-0.3-0.4-0.4-0.7
					c-0.1-0.3-0.1-0.6-0.1-0.9v-11.5c0-0.1,0-0.2-0.1-0.3c-0.1-0.1-0.2-0.1-0.3-0.1h-2l0.5-3.2h4c0.5,0,0.8,0.2,1.2,0.5
					c0.3,0.3,0.5,0.7,0.5,1.2L145.2,141.1 M143.7,120.4l1.8,5.6l-3.6,1.2l-1.8-5.8L143.7,120.4z"/>
			</g>
			<path id="XMLID_1989_" class="st1" d="M68.4,150.6v3.6c0,0.1,0,0.2-0.1,0.3s-0.1,0.1-0.2,0.2c-0.1,0.1-0.2,0.1-0.3,0.1
				c-0.1,0-0.2,0-0.3,0H65v0.5h3.8v1.2H65v1.1h-1.4v-1.1h-3.7v-1.2h3.7v-0.5h-3.3v-3.6c0-0.1,0-0.2,0.1-0.3c0-0.1,0.1-0.1,0.2-0.2
				c0.1-0.1,0.2-0.1,0.3-0.1s0.2,0,0.3,0h2.4v-1.9h1.4v0.3h3.9v1.2h-3.9v0.4L68.4,150.6 M61.7,151.8v0.4h5.3v-0.4H61.7 M66.9,153.7
				v-0.4h-5.3v0.4H66.9z M76.7,152l0.2-1.5h-5.1l-0.5,1.5h-1.4l1.2-3.2h1.4l-0.2,0.6h5.7c0.2,0,0.3,0.1,0.4,0.2
				c0.1,0.1,0.1,0.3,0.1,0.5l-0.3,2H76.7 M72.2,156.6h1.3v-5.5h1.4v6.1c0,0.1,0,0.2-0.1,0.2c0,0.1-0.1,0.1-0.2,0.2
				c-0.1,0-0.2,0.1-0.2,0.1c-0.1,0-0.2,0-0.2,0h-2V156.6 M77.4,152.5l1,5h-1.4l-0.9-5H77.4 M72.2,152.5l-0.9,5h-1.4l0.9-5H72.2z
				 M83.3,157.7v-5.5l-1.6,3.2c-0.1,0.1-0.2,0.2-0.3,0.2c-0.1,0-0.2,0.1-0.4,0.1h-1.3l-0.1-1.2h1l2.2-4.6h-3v-1.2h8.4v1.2h-3.9
				l-0.7,1.5h1.1v6.3L83.3,157.7 M86.7,151.5l1.5,4.4h-1.5l-1.5-4.4H86.7z M89.2,155.6l0.4-2.1h-0.2v-1.1h0.4l0.1-0.7h-0.8v-1.1h1.1
				l0.1-0.7h-0.9V149h4.2v1.8h0.3v1.1h-0.3v1.2c0,0.1,0,0.2-0.1,0.2c0,0.1-0.1,0.1-0.2,0.2c-0.1,0.1-0.1,0.1-0.2,0.1
				c-0.1,0-0.2,0-0.2,0H91l-0.1,0.4h2.8v3.2c0,0.1,0,0.2-0.1,0.2c0,0.1-0.1,0.1-0.2,0.2c-0.1,0-0.1,0.1-0.2,0.1c-0.1,0-0.2,0-0.3,0
				h-3.1v-2.1H89.2 M95.4,157.7V156h-1.3v-1.2h1.3v-1.4h-1.2v-1.2h1.2V151h-1.3v-1.2h0.4l-0.3-1h1.4l0.3,1h0.5l0.3-1h1.4l-0.3,1h0.4
				v1.2h-1.3v1.4H98v1.2h-1.2v1.4h1.3v1.2h-1.3v1.7H95.4 M91.2,155v1.7h1.1V155H91.2 M92.3,152.5v-0.7h-1l-0.1,0.7H92.3 M92.3,150.1
				h-0.6l-0.1,0.7h0.7V150.1z M108.1,156.8h0.7v-0.3h-2v1.2h-1.4v-4.1c0-0.2,0.1-0.3,0.2-0.4c0.1-0.1,0.3-0.1,0.4-0.1h4.1v4.1
				c0,0.1,0,0.2-0.1,0.3c0,0.1-0.1,0.1-0.2,0.2c-0.1,0-0.1,0.1-0.2,0.1c-0.1,0-0.2,0-0.2,0h-1.4V156.8 M105.3,151.8h1.8v-0.3h-1.7
				v-1.1h1.7v-0.3h-1.8v-1h1.8v-0.3h1.4v0.3h1.8v1h-1.8v0.3h1.7v1.1h-1.7v0.3h1.8v1h-5V151.8 M102.5,157.7V153h-1.2v-1.1h1.2v-3.1
				h1.3v3.1h1.2v1.1h-1.2v4.7H102.5 M101.3,157.7l0.2-4.4h0.9l-0.2,4.4H101.3 M104.2,157.7l-0.2-4.4h0.8l0.2,4.4H104.2 M104,151.5
				l0.2-2.5h0.9l-0.2,2.5H104 M101.5,151.5l-0.2-2.5h0.9l0.2,2.5H101.5 M106.8,155.6h2v-0.3h-2V155.6 M108.8,154.1h-2v0.3h2V154.1z
				 M115.8,150.2l1.2,0.8l1.4-0.6v-0.5h-4.5l-0.1-1.1l5.3,0c0.1,0,0.2,0,0.3,0c0.1,0,0.2,0.1,0.2,0.1c0.1,0.1,0.1,0.1,0.2,0.2
				c0,0.1,0.1,0.2,0.1,0.3v1.3c0,0.2-0.1,0.3-0.2,0.5l-1.4,0.6l1.8,1.2h-2l-1.1-0.7l-1.4,0.6c-0.1,0-0.1,0.1-0.2,0.1s-0.2,0-0.3,0
				H114l-0.1-1.1h0.8l1.1-0.5l-1.9-1.3L115.8,150.2 M117.6,157.7h-1.4v-1h-2.4v-1.2h2.4v-0.8H114v-1.1h2.2v-0.6h1.4v0.6h2.2v1.1
				h-2.2v0.8h2.4v1.2h-2.4V157.7 M113.7,157.7h-1.2c-0.1,0-0.2,0-0.3,0c-0.1,0-0.2-0.1-0.3-0.1c-0.1-0.1-0.1-0.1-0.2-0.2
				c0-0.1-0.1-0.2-0.1-0.3v-4.9h-0.6V151h2v5.6h0.5L113.7,157.7 M111.9,150.4l-0.2-1.7h1.4l0.2,1.7H111.9z M120.9,150.1h3.8v-1.3
				h1.4v1.3h3.7v1.2h-3.7v5.9c0,0.1,0,0.2-0.1,0.2c0,0.1-0.1,0.1-0.2,0.2c-0.1,0.1-0.2,0.1-0.2,0.1s-0.2,0-0.2,0h-2v-1.2h1.3v-5.3
				h-3.8V150.1 M128.2,157.7l-1.3-3.8l1-2.3h1.5l-1,2.3l1.3,3.8H128.2 M120.9,157.6l1.3-3.7h1.5l-1.3,3.7H120.9 M122.9,151.6
				l0.8,2.1h-1.5l-0.8-2.1H122.9 M128.6,148.8l0.3,1h-1.5l-0.3-1H128.6z M137.4,156.8h0.7v-0.3h-2v1.2h-1.4v-4.1
				c0-0.2,0.1-0.3,0.2-0.4c0.1-0.1,0.3-0.1,0.4-0.1h4.1v4.1c0,0.1,0,0.2-0.1,0.3c0,0.1-0.1,0.1-0.2,0.2c-0.1,0-0.1,0.1-0.2,0.1
				c-0.1,0-0.2,0-0.2,0h-1.4V156.8 M134.6,151.8h1.8v-0.3h-1.7v-1.1h1.7v-0.3h-1.8v-1h1.8v-0.3h1.4v0.3h1.8v1h-1.8v0.3h1.7v1.1h-1.7
				v0.3h1.8v1h-5V151.8 M131.9,157.7V153h-1.2v-1.1h1.2v-3.1h1.3v3.1h1.2v1.1h-1.2v4.7H131.9 M130.6,157.7l0.2-4.4h0.9l-0.2,4.4
				H130.6 M133.5,157.7l-0.2-4.4h0.8l0.2,4.4H133.5 M133.3,151.5l0.2-2.5h0.9l-0.2,2.5H133.3 M130.8,151.5l-0.2-2.5h0.9l0.2,2.5
				H130.8 M136.1,155.6h2v-0.3h-2V155.6 M138.1,154.1h-2v0.3h2V154.1z"/>
			<g id="XMLID_940_">
				<path id="XMLID_1988_" class="st1" d="M74.7,66.3c-1,6.7,0.4,13.3,3.9,18.1c2.7,3.7,6.5,6.1,10.7,6.8c4.4,0.7,8.7-0.3,12.2-2.9
					c1-0.7,1.8-1.5,2.6-2.4c-1.7,0.8-3.7,1-5.9,0.6c-9.1-1.4-15.2-10.4-13.7-20.1c0.7-4.7,3.4-8.9,7.5-11.9
					c5.2-3.8,12.4-5.4,19.5-4.3c5.8,0.9,13.7,4.6,19.8,11.8c0,0-17.7-30.6-43.5-15.8C79.5,51.1,75.6,60.6,74.7,66.3z"/>
				<path id="XMLID_1987_" class="st1" d="M125.1,89.2c1.3-6.6,0.1-13.3-3.3-18.3c-2.6-3.8-6.3-6.4-10.4-7.2
					c-4.4-0.8-8.7,0-12.3,2.4c-1,0.7-1.9,1.4-2.7,2.3c1.7-0.7,3.8-0.8,5.9-0.4c9,1.7,14.8,11,13,20.6c-0.9,4.6-3.7,8.8-8,11.6
					c-5.4,3.6-12.6,4.9-19.7,3.6c-5.8-1.1-13.5-5.1-19.4-12.5c0,0,16.5,31.2,42.9,17.4C119.7,104.3,124,94.9,125.1,89.2L125.1,89.2z
					"/>
				<path id="XMLID_1982_" class="st1" d="M88.8,102.9c6.7,1,13.3-0.4,18.1-3.9c3.7-2.7,6.1-6.5,6.8-10.7c0.7-4.4-0.3-8.7-2.9-12.2
					c-0.7-1-1.5-1.8-2.4-2.6c0.8,1.7,1,3.7,0.6,5.9c-1.4,9.1-10.4,15.2-20.1,13.7c-4.7-0.7-8.9-3.4-11.9-7.5
					c-3.8-5.2-5.4-12.4-4.3-19.5c0.9-5.8,4.6-13.7,11.8-19.8c0,0-30.6,17.7-15.8,43.5C73.6,98.1,83.1,102,88.8,102.9z"/>
				<path id="XMLID_1981_" class="st1" d="M131.2,66.3c-4.4-8.5-13.8-12.8-19.5-13.9c-6.6-1.3-13.3-0.1-18.3,3.3
					c-3.8,2.6-6.4,6.3-7.2,10.4c-0.8,4.4,0,8.7,2.4,12.3c0.7,1,1.4,1.9,2.3,2.7c-0.7-1.7-0.8-3.8-0.4-5.9c1.7-9,11-14.8,20.6-13
					c4.6,0.9,8.8,3.7,11.6,8c3.6,5.4,4.9,12.6,3.6,19.7c-1.1,5.8-5.1,13.5-12.5,19.4C113.8,109.2,145,92.6,131.2,66.3L131.2,66.3z"
					/>
			</g>
		</g>
	</g>
</g>
</svg>
