<?xml version="1.0" encoding="utf-8"?>
<!-- Generator: Adobe Illustrator 19.0.0, SVG Export Plug-In . SVG Version: 6.00 Build 0)  -->
<svg version="1.1" id="圖層_1" xmlns="http://www.w3.org/2000/svg" xmlns:xlink="http://www.w3.org/1999/xlink" x="0px" y="0px"
	 width="200px" height="200px" viewBox="0 0 200 200" style="enable-background:new 0 0 200 200;" xml:space="preserve">
<style type="text/css">
	.st0{fill:url(#XMLID_118_);}
	.st1{fill:#FFFFFF;}
</style>
<g id="XMLID_2213_">
	
		<linearGradient id="XMLID_118_" gradientUnits="userSpaceOnUse" x1="-3.381070e-002" y1="3.383359e-002" x2="200.0338" y2="199.9662">
		<stop  offset="0" style="stop-color:#8CA6DB"/>
		<stop  offset="1" style="stop-color:#B993D6"/>
	</linearGradient>
	<rect id="XMLID_1992_" class="st0" width="200" height="200"/>
	<g id="XMLID_2218_">
		<g id="XMLID_2221_">
			<g id="XMLID_2229_">
				<path id="XMLID_2230_" class="st1" d="M75.3,159.8l-35.1-35.1c-13.6-13.6-13.6-35.7,0-49.4l35.1-35.1
					c13.6-13.6,35.7-13.6,49.4,0l35.1,35.1c13.6,13.6,13.6,35.7,0,49.4l-35.1,35.1C111,173.3,89,173.3,75.3,159.8L75.3,159.8z
					 M120.8,44.1c-11.5-11.5-30.2-11.5-41.7,0L44,79.2c-11.5,11.5-11.5,30.2,0,41.7l35.1,35.1c11.5,11.5,30.2,11.5,41.8,0l35.1-35.1
					c11.5-11.5,11.5-30.2,0-41.8L120.8,44.1z"/>
			</g>
			<path id="XMLID_2222_" class="st1" d="M54,116.1l-1.6,5.8h16.7l1.5-5.7h3l-1.5,5.7h16.7l11.4-42.6H83.6l-5.7,21.4h-3l5.7-21.4
				H63.9l-5.8,21.5h-2.8l-4.1,15.4H54 M53.4,121.2l1.6-5.8h-2.8l3.7-13.8h2.8l5.8-21.6h15.2L74,101.4h4.5l5.7-21.4h15.2l-11,41.1
				H73.2l1.6-5.7h-4.5l-1.6,5.7H53.4 M57.7,113.2l-1.5,5.8h11l1.5-5.6h8.8l-1.5,5.6h10.9l9.8-36.7H85.7L80,103.6h-8.8L77,82.2H66
				l-5.8,21.5h-2.8l-2.6,9.5L57.7,113.2z M119.6,119l-4.6-8.4l-8.9,8.4H93.2l20.7-19.7l-9.7-17h12.2l4.3,7.2l8.2-7.2h12.2l-18.7,17
				l10.1,19.7H119.6 M114.1,114l3.8,7.1h18.4l-11.1-21.9l21.1-19.2h-17.8l-7,6.1l-3.6-6.1h-17.8l10.8,19.2l-22.9,21.9h18.4
				L114.1,114 M117.4,121.9l-3.6-6.6l-7.1,6.6H86.4l23.6-22.6l-11.3-20h19.9l3.3,5.7l6.5-5.7h19.8l-22,20l11.5,22.6H117.4z"/>
		</g>
	</g>
</g>
</svg>
