<?xml version="1.0" encoding="utf-8"?>
<!-- Generator: Adobe Illustrator 19.0.0, SVG Export Plug-In . SVG Version: 6.00 Build 0)  -->
<svg version="1.1" id="圖層_1" xmlns="http://www.w3.org/2000/svg" xmlns:xlink="http://www.w3.org/1999/xlink" x="0px" y="0px"
	 width="200px" height="200px" viewBox="0 0 200 200" style="enable-background:new 0 0 200 200;" xml:space="preserve">
<style type="text/css">
	.st0{fill:url(#XMLID_118_);}
	.st1{fill:#FFFFFF;}
</style>
<g id="XMLID_2450_">
	<linearGradient id="XMLID_118_" gradientUnits="userSpaceOnUse" x1="-10.7692" y1="13.8462" x2="210.7692" y2="186.1539">
		<stop  offset="0" style="stop-color:#26D0CE"/>
		<stop  offset="1" style="stop-color:#1A2980"/>
	</linearGradient>
	<rect id="XMLID_2365_" class="st0" width="200" height="200"/>
	<g id="XMLID_2366_">
		<g id="XMLID_2371_">
			<g id="XMLID_2420_">
				<path id="XMLID_2440_" class="st1" d="M43.7,134.2c1.7,0,3.2-1.4,3.2-3.2v-6.6c0-1.7-1.4-3.2-3.2-3.2H30.7
					c-1.7,0-3.2,1.4-3.2,3.2v6.6c0,1.7,1.4,3.2,3.2,3.2H43.7z M43.3,142.4h-8.1c-0.8,0-1.5-0.6-1.5-1.3v-5.9H32v5.9
					c0,1.6,1.4,3,3.2,3h8.1L43.3,142.4z M43.7,132.5H38v-4h7.2v2.5C45.1,131.8,44.5,132.5,43.7,132.5z M30.7,132.5
					c-0.8,0-1.5-0.7-1.5-1.5v-2.5h7v4H30.7z M43.7,122.9c0.8,0,1.5,0.6,1.5,1.5v2.4H38v-3.8H43.7z M29.3,124.4
					c0-0.8,0.7-1.5,1.5-1.5h5.5v3.8h-7V124.4z M44.2,135.3l2.6,8.9l1.7-0.5l-2.6-8.9L44.2,135.3z M28,134.9
					c-0.4,3.3-1.2,6.1-2.3,8.6l1.6,0.7c1.1-2.6,2-5.6,2.4-9.1L28,134.9z M37.8,135.3v4.9h1.7v-4.9H37.8z"/>
				<path id="XMLID_2437_" class="st1" d="M77.2,137.8v-12.9c0-1.8-1.4-3.2-3.2-3.2H62.5c-1.7,0-3.2,1.4-3.2,3.2v12.9h1.7v-12.9
					c0-0.8,0.7-1.4,1.5-1.4h11.5c0.8,0,1.4,0.7,1.4,1.4v12.9H77.2z M58,144.4c5.4-1.9,8.4-4.5,9.8-7.7l11.1,7.6l1-1.4L68.4,135
					c0.4-1.5,0.6-3,0.6-4.7v-4.5h-1.7v4.5c0,5.4-2.2,9.7-9.9,12.5L58,144.4z"/>
				<path id="XMLID_2431_" class="st1" d="M89.4,132.9h7.8c-2.1,0.8-4.9,1.4-8,1.8l0.3,1.7c3.6-0.5,6.8-1.2,9.2-2.2
					c0.3,0.3,0.7,0.6,0.9,0.9l0,0c-2.3,1.2-6,2.1-10.5,2.7l0.2,1.7c4.9-0.6,8.9-1.6,11.4-3c0.2,0.4,0.3,0.8,0.4,1.2
					c-2.4,1.5-6.6,2.6-11.9,3.3l0.2,1.7c4.7-0.6,8.6-1.5,11.3-2.8c-0.5,1-1.6,2-3.5,2.9l0.7,1.6c3.5-1.5,4.9-3.7,4.9-5.9
					c0-0.2,0-0.4,0-0.5l6.5,5.5l1.1-1.3l-6.3-5.3l6.3-2.1l-0.5-1.6l-7.3,2.4l-2-1.7l-0.4-0.4c0.3-0.2,0.6-0.3,0.8-0.5h9.7v-1.7H89.4
					V132.9z M105.1,121.2v1.3H95v-1.3h-1.7v1.3h-4.7v1.7h4.7v1.3H95v-1.3h10.2v1.3h1.7v-1.3h4.7v-1.7h-4.7v-1.3H105.1z M90.8,129.8
					v-1.8c0-0.3,0.2-0.5,0.5-0.5h17.4c0.3,0,0.5,0.2,0.5,0.5v1.8h1.7v-1.8c0-1.2-1-2.3-2.3-2.3H91.4c-1.2,0-2.3,1-2.3,2.3v1.8H90.8z
					 M92.9,130h14.4v-1.7H92.9L92.9,130z"/>
				<path id="XMLID_2428_" class="st1" d="M125.1,121.2v2.3h-4.6v1.7h4.6v3.2H120v1.7h2.8c-0.6,1.5-1.6,2.9-2.9,4.1l1.1,1.3
					c0.7-0.6,1.3-1.3,1.8-2h5.7c-0.5,1.2-1.2,2.3-2.1,3.5l-6.2,0.9l0.2,1.7l5.9-0.9v2.8c0,0.6-0.5,1-1,1h-2.2v1.7h2.2
					c1.5,0,2.8-1.2,2.8-2.7v-3.1l4-0.6l-0.2-1.7l-3.1,0.5c0.8-1.3,1.5-2.9,2.1-4.9h-7.1c0.3-0.5,0.5-1.1,0.7-1.7h7.3v-1.7h-1.5v-1.9
					h-1.7v1.9h-1.9v-3.2h4.6v-1.7h-4.6v-2.3L125.1,121.2z M132.3,127.5l4.5,8.1c-1.6,3.2-3.4,5.5-5.4,7.5l1.2,1.2
					c1.9-1.8,3.7-4.1,5.2-6.9l3.8,6.8l1.5-0.9l-4.4-7.8c1.2-2.7,2.3-6,3.1-9.9h1.1v-1.7h-8.7l0.4-2.2l-1.7-0.3l-0.7,4.2h7.9
					c-0.7,3.1-1.5,5.8-2.4,8l-3.9-7L132.3,127.5z"/>
				<path id="XMLID_2421_" class="st1" d="M172.6,144.3v-9.9c0-1.8-1.4-3.2-3.2-3.2h-12.8c-1.7,0-3.2,1.4-3.2,3.2v9.9h1.7v-2.6h15.7
					v2.6H172.6z M170.8,125.9v1c0,0.8-0.6,1.5-1.5,1.5h-13.1l1-3.5h17v-1.7h-10.4v-1.9h-1.7v1.9h-10.4v1.7h3.7l-1.5,5.3h15.3
					c1.7,0,3.2-1.4,3.2-3.2v-1H170.8z M155.1,134.5c0-0.8,0.7-1.4,1.5-1.4h12.8c0.8,0,1.5,0.7,1.5,1.4v1.3h-15.7V134.5z
					 M155.1,137.5h15.7v2.6h-15.7V137.5z"/>
			</g>
			<path id="XMLID_2386_" class="st1" d="M61.1,155.1v2.5c0,0.1,0,0.2-0.1,0.2c-0.1,0-0.2,0-0.2-0.1c0,0-0.1-0.1-0.1-0.1v-2.5h-2.9
				c-0.5,0-0.8-0.1-0.8-0.3c0-0.2-0.1-0.4-0.1-0.5v-3.1c0-0.1,0-0.3,0.1-0.5c0.1-0.2,0.3-0.3,0.8-0.3h2.9V149c0,0,0-0.1,0.1-0.2
				s0.1-0.1,0.2,0s0.1,0.1,0.1,0.2v1.4H64c0.4,0,0.6,0.1,0.7,0.2c0.1,0.1,0.2,0.3,0.2,0.6v3.1c0,0.5-0.3,0.8-0.9,0.8H61.1
				 M60.7,150.8h-2.9c-0.2,0-0.4,0-0.4,0.1c-0.1,0.1-0.1,0.2-0.1,0.3v2.9c0,0.1,0,0.3,0.1,0.4c0,0.1,0.2,0.1,0.4,0.1h2.9L60.7,150.8
				 M61.1,150.8v3.9H64c0.2,0,0.4,0,0.4-0.1s0.1-0.2,0.1-0.3v-3c0-0.1,0-0.2-0.1-0.3c0-0.1-0.2-0.1-0.4-0.1H61.1z M70.3,150.9v1.7
				h2.1c0,0,0.1,0,0.1,0.1c0,0,0.1,0.1,0.1,0.1c0,0,0,0.1-0.1,0.1c0,0-0.1,0.1-0.1,0.1h-2.1v2.5h2.7c0,0,0.1,0,0.1,0.1
				c0,0,0.1,0.1,0.1,0.1c0,0,0,0.1,0,0.1c0,0-0.1,0-0.1,0h-5.6c0,0-0.1,0-0.1-0.1c0,0,0-0.1,0-0.1c0,0,0-0.1,0.1-0.1
				c0,0,0.1-0.1,0.1-0.1h2.6V153h-2.1c-0.1,0-0.1,0-0.2-0.1c0,0,0-0.1,0-0.1c0-0.1,0.1-0.1,0.2-0.1h2.1v-1.7l-2.2,0
				c-0.1,0-0.2-0.1-0.2-0.2c0-0.1,0.1-0.2,0.2-0.2l4.9,0c0.1,0,0.2,0,0.2,0.1c0,0.1,0,0.1,0,0.2c0,0-0.1,0.1-0.1,0.1L70.3,150.9
				 M72.5,155c0,0.1,0,0.2-0.1,0.2c-0.1,0-0.1,0-0.2,0c0,0,0,0-0.1-0.1c0,0-0.1-0.2-0.3-0.5c-0.2-0.3-0.4-0.5-0.5-0.7
				c-0.1-0.2-0.2-0.2-0.2-0.3c0,0,0,0,0-0.1c0-0.1,0-0.1,0.1-0.2c0.1-0.1,0.1-0.1,0.2,0c0.1,0.1,0.3,0.4,0.7,0.8
				C72.3,154.6,72.5,154.9,72.5,155 M73,149.3c0.3,0,0.5,0.1,0.7,0.2s0.2,0.3,0.2,0.6v6.3c0,0.5-0.3,0.7-0.8,0.7h-5.7
				c-0.5,0-0.8-0.3-0.8-0.8v-6.3c0-0.2,0-0.3,0.1-0.5c0.1-0.2,0.3-0.3,0.7-0.3L73,149.3 M73,156.8c0.2,0,0.3,0,0.4-0.1
				c0.1-0.1,0.1-0.2,0.1-0.3v-6.3c0-0.1,0-0.2-0.1-0.3c0-0.1-0.2-0.2-0.4-0.2h-5.7c-0.3,0-0.4,0.1-0.4,0.2c0,0.1-0.1,0.2-0.1,0.3
				v6.2c0,0.1,0,0.2,0.1,0.3c0,0.1,0.2,0.2,0.4,0.2L73,156.8z M79.4,150.9v1.7h2.1c0,0,0.1,0,0.1,0.1c0,0,0.1,0.1,0.1,0.1
				c0,0,0,0.1-0.1,0.1c0,0-0.1,0.1-0.1,0.1h-2.1v2.5h2.7c0,0,0.1,0,0.1,0.1c0,0,0.1,0.1,0.1,0.1c0,0,0,0.1,0,0.1c0,0-0.1,0-0.1,0
				h-5.6c0,0-0.1,0-0.1-0.1c0,0,0-0.1,0-0.1c0,0,0-0.1,0.1-0.1c0,0,0.1-0.1,0.1-0.1h2.6V153h-2.1c-0.1,0-0.1,0-0.2-0.1
				c0,0,0-0.1,0-0.1c0-0.1,0.1-0.1,0.2-0.1h2.1v-1.7l-2.2,0c-0.1,0-0.2-0.1-0.2-0.2c0-0.1,0.1-0.2,0.2-0.2l4.9,0
				c0.1,0,0.2,0,0.2,0.1c0,0.1,0,0.1,0,0.2c0,0-0.1,0.1-0.1,0.1L79.4,150.9 M81.7,155c0,0.1,0,0.2-0.1,0.2c-0.1,0-0.1,0-0.2,0
				c0,0,0,0-0.1-0.1c0,0-0.1-0.2-0.3-0.5c-0.2-0.3-0.4-0.5-0.5-0.7c-0.1-0.2-0.2-0.2-0.2-0.3c0,0,0,0,0-0.1c0-0.1,0-0.1,0.1-0.2
				c0.1-0.1,0.1-0.1,0.2,0c0.1,0.1,0.3,0.4,0.7,0.8C81.5,154.6,81.7,154.9,81.7,155 M82.2,149.3c0.3,0,0.5,0.1,0.7,0.2
				s0.2,0.3,0.2,0.6v6.3c0,0.5-0.3,0.7-0.8,0.7h-5.7c-0.5,0-0.8-0.3-0.8-0.8v-6.3c0-0.2,0-0.3,0.1-0.5c0.1-0.2,0.3-0.3,0.7-0.3
				L82.2,149.3 M82.2,156.8c0.2,0,0.3,0,0.4-0.1c0.1-0.1,0.1-0.2,0.1-0.3v-6.3c0-0.1,0-0.2-0.1-0.3c0-0.1-0.2-0.2-0.4-0.2h-5.7
				c-0.3,0-0.4,0.1-0.4,0.2c0,0.1-0.1,0.2-0.1,0.3v6.2c0,0.1,0,0.2,0.1,0.3c0,0.1,0.2,0.2,0.4,0.2L82.2,156.8z M88.9,154.5h3.6
				c0.1,0,0.2,0,0.2,0.1c0,0.1,0,0.1-0.1,0.2c0,0-0.1,0.1-0.1,0.1h-3.5c0.1,0.3,0.2,0.5,0.3,0.7c0,0.2,0.1,0.4,0.1,0.7
				c0,0.2,0,0.4-0.1,0.5c-0.1,0.1-0.2,0.3-0.4,0.5c-0.2,0.2-0.5,0.3-0.8,0.3c-0.2,0-0.4,0-0.7,0c-0.3,0-0.5-0.1-0.6-0.2
				c-0.1-0.1-0.2-0.1-0.2-0.2c0-0.1,0-0.1,0-0.2c0,0,0.1-0.1,0.2-0.1c0,0,0.2,0,0.4,0.1c0.2,0.1,0.4,0.1,0.7,0.1
				c0.3,0,0.6-0.1,0.7-0.2c0.2-0.2,0.3-0.4,0.3-0.6c0-0.2,0-0.4,0-0.6c0-0.3-0.2-0.6-0.3-1h-4.1c-0.1,0-0.2-0.1-0.2-0.2
				c0-0.1,0-0.2,0.2-0.2h3.9c-0.1-0.1-0.2-0.2-0.3-0.3c-0.1-0.1-0.1-0.1-0.1-0.1c0,0,0-0.1,0-0.1c0,0,0.1-0.1,0.2-0.1
				c0.1,0,0.4-0.1,0.8-0.3s0.8-0.4,1-0.5c0.3-0.1,0.4-0.2,0.4-0.3c0-0.1,0-0.1,0-0.1c0,0-0.2,0-0.4,0h-4.3c-0.1,0-0.1,0-0.1-0.1
				c0,0-0.1-0.1,0-0.1c0-0.1,0.1-0.2,0.2-0.2h4.4c0.4,0,0.7,0,0.9,0.1c0.2,0,0.2,0.2,0,0.4c-0.1,0.1-0.3,0.3-0.6,0.4
				c-0.3,0.2-0.6,0.3-1,0.5c-0.4,0.2-0.6,0.3-0.7,0.3c-0.1,0-0.2,0.1-0.2,0.1S88.7,154.2,88.9,154.5 M90.7,150.8h0.9
				c0.3,0,0.5,0,0.6,0.1c0.1,0.1,0.2,0.2,0.2,0.4c0,0.1,0,0.3,0,0.4c0,0.1,0,0.2-0.1,0.4c0,0.2-0.1,0.4-0.1,0.5
				c-0.1,0.2-0.1,0.3-0.2,0.3c-0.1,0.1-0.1,0.1-0.2,0c-0.1,0-0.1-0.1-0.1-0.1c0-0.1,0-0.2,0.1-0.3c0.1-0.2,0.1-0.4,0.2-0.6
				s0.1-0.4,0.1-0.5c0-0.1,0-0.2-0.1-0.3c-0.1-0.1-0.2-0.1-0.5-0.1h-5.9c-0.2,0-0.4,0-0.5,0.1c-0.1,0-0.1,0.1-0.1,0.2
				c0,0.1,0,0.1,0,0.2v1.3c0,0,0,0.1-0.1,0.2c-0.1,0.1-0.1,0.1-0.2,0c-0.1-0.1-0.1-0.1-0.1-0.2v-1.2c0-0.1,0-0.3,0.1-0.5
				c0.1-0.2,0.3-0.3,0.8-0.3h4.7c0.2-0.2,0.3-0.5,0.5-0.8c0.2-0.3,0.3-0.5,0.4-0.7c0.1-0.2,0.2-0.3,0.2-0.4c0.1-0.1,0.1-0.1,0.2,0
				c0.1,0.1,0.1,0.2,0,0.4s-0.3,0.5-0.5,0.8C90.9,150.5,90.8,150.7,90.7,150.8 M85.2,149.3c0-0.1,0-0.1,0-0.2c0,0,0.1-0.1,0.2-0.1
				c0.1,0,0.2,0.1,0.4,0.3c0.2,0.2,0.4,0.4,0.5,0.6c0.2,0.2,0.2,0.3,0.3,0.4c0,0,0,0.1,0,0.2c0,0.1-0.1,0.1-0.2,0
				c0,0-0.1-0.1-0.2-0.3c-0.1-0.2-0.2-0.3-0.3-0.4c-0.1-0.1-0.2-0.3-0.4-0.4C85.3,149.4,85.2,149.3,85.2,149.3 M89.1,150.4
				c0,0.1,0,0.1-0.1,0.2c0,0-0.1,0.1-0.2,0c0,0-0.1,0-0.1-0.1c0,0-0.1-0.1-0.1-0.2s-0.1-0.2-0.2-0.4c-0.1-0.2-0.2-0.3-0.3-0.5
				c-0.1-0.1-0.2-0.2-0.2-0.3s0-0.1,0.2-0.2c0.1,0,0.2,0.1,0.3,0.2c0.1,0.1,0.3,0.4,0.4,0.6S89.1,150.3,89.1,150.4z M106.6,154.8
				H103c0,0-0.1,0-0.1,0s-0.1-0.1-0.1-0.1c0-0.1,0-0.1,0-0.1c0,0,0.1-0.1,0.1-0.1h3.6l0-0.8c0-0.1,0-0.1,0.1-0.1
				c0,0,0.1-0.1,0.1-0.1c0.1,0,0.1,0,0.1,0.1c0,0,0.1,0.1,0.1,0.1v0.8h3.6c0.1,0,0.1,0,0.2,0.1c0,0.1,0,0.1,0,0.2
				c0,0-0.1,0.1-0.1,0.1h-3.5c0.1,0.2,0.3,0.4,0.5,0.6c0.2,0.2,0.6,0.5,1.1,0.7c0.5,0.2,0.9,0.3,1.1,0.4c0.2,0.1,0.5,0.1,0.7,0.2
				c0.2,0,0.4,0.1,0.4,0.1s0,0.1,0,0.1c0,0.1-0.1,0.2-0.2,0.2c-0.1,0-0.5-0.1-1.2-0.3c-0.7-0.2-1.3-0.5-1.7-0.8
				c-0.4-0.3-0.7-0.7-0.9-1c-0.2,0.3-0.5,0.6-0.9,0.9c-0.4,0.3-0.8,0.5-1.3,0.7c-0.5,0.1-0.9,0.2-1.2,0.3c-0.3,0.1-0.5,0.1-0.6,0.1
				c-0.1,0-0.2-0.1-0.2-0.2c0-0.1,0-0.1,0.1-0.2c0,0,0.1,0,0.1-0.1c0,0,0.3,0,0.9-0.1c0.6-0.1,1-0.2,1.5-0.5
				c0.4-0.3,0.7-0.5,0.9-0.6C106.3,155.2,106.5,155,106.6,154.8 M106.7,153v-1.1h-3.1c-0.1,0-0.1,0-0.1-0.1c0,0-0.1-0.1-0.1-0.1
				c0-0.1,0-0.1,0.1-0.1c0,0,0.1-0.1,0.1-0.1h3.1v-1.1h-3.4c0,0-0.1,0-0.1-0.1c0,0,0-0.1,0-0.1c0,0,0-0.1,0.1-0.1
				c0,0,0.1-0.1,0.1-0.1h2.1c-0.1-0.1-0.2-0.3-0.3-0.5c-0.1-0.2-0.2-0.3-0.2-0.4c-0.1-0.1-0.1-0.1-0.1-0.2c0-0.1,0-0.1,0.1-0.2
				c0.1-0.1,0.1-0.1,0.2,0c0.1,0.1,0.2,0.2,0.3,0.4s0.2,0.3,0.2,0.4c0.1,0.1,0.1,0.2,0.1,0.2l0,0.2h2.5c0.2-0.2,0.3-0.4,0.4-0.5
				l0.2-0.4c0-0.1,0.1-0.2,0.2-0.2c0.1-0.1,0.1-0.1,0.2,0c0.1,0.1,0.1,0.1,0.1,0.3s-0.2,0.4-0.5,0.9h2.1c0.1,0,0.1,0,0.1,0.1
				c0,0.1,0,0.1,0,0.2c0,0-0.1,0.1-0.1,0.1h-3.6v1.1h3.1c0.1,0,0.1,0,0.2,0.1c0,0,0.1,0.1,0.1,0.2c0,0.1-0.1,0.2-0.2,0.2h-3.1v1.1
				l3.7,0c0,0,0.1,0,0.1,0.1c0,0,0.1,0.1,0.1,0.1c0,0.1,0,0.1-0.1,0.1c0,0-0.1,0.1-0.1,0.1H103c0,0-0.1,0-0.1-0.1c0,0,0-0.1,0-0.1
				c0,0,0-0.1,0.1-0.1c0,0,0.1-0.1,0.1-0.1L106.7,153z M116.2,150.9v1.7h2.1c0,0,0.1,0,0.1,0.1c0,0,0.1,0.1,0.1,0.1
				c0,0,0,0.1-0.1,0.1c0,0-0.1,0.1-0.1,0.1h-2.1v2.5h2.7c0,0,0.1,0,0.1,0.1c0,0,0.1,0.1,0.1,0.1c0,0,0,0.1,0,0.1c0,0-0.1,0-0.1,0
				h-5.6c0,0-0.1,0-0.1-0.1c0,0,0-0.1,0-0.1c0,0,0-0.1,0.1-0.1c0,0,0.1-0.1,0.1-0.1h2.6V153h-2.1c-0.1,0-0.1,0-0.2-0.1
				c0,0,0-0.1,0-0.1c0-0.1,0.1-0.1,0.2-0.1h2.1v-1.7l-2.2,0c-0.1,0-0.2-0.1-0.2-0.2c0-0.1,0.1-0.2,0.2-0.2l4.9,0
				c0.1,0,0.2,0,0.2,0.1c0,0.1,0,0.1,0,0.2c0,0-0.1,0.1-0.1,0.1L116.2,150.9 M118.4,155c0,0.1,0,0.2-0.1,0.2c-0.1,0-0.1,0-0.2,0
				c0,0,0,0-0.1-0.1c0,0-0.1-0.2-0.3-0.5c-0.2-0.3-0.4-0.5-0.5-0.7c-0.1-0.2-0.2-0.2-0.2-0.3c0,0,0,0,0-0.1c0-0.1,0-0.1,0.1-0.2
				c0.1-0.1,0.1-0.1,0.2,0c0.1,0.1,0.3,0.4,0.7,0.8C118.2,154.6,118.4,154.9,118.4,155 M118.9,149.3c0.3,0,0.5,0.1,0.7,0.2
				s0.2,0.3,0.2,0.6v6.3c0,0.5-0.3,0.7-0.8,0.7h-5.7c-0.5,0-0.8-0.3-0.8-0.8v-6.3c0-0.2,0-0.3,0.1-0.5c0.1-0.2,0.3-0.3,0.7-0.3
				L118.9,149.3 M118.9,156.8c0.2,0,0.3,0,0.4-0.1c0.1-0.1,0.1-0.2,0.1-0.3v-6.3c0-0.1,0-0.2-0.1-0.3c0-0.1-0.2-0.2-0.4-0.2h-5.7
				c-0.3,0-0.4,0.1-0.4,0.2c0,0.1-0.1,0.2-0.1,0.3v6.2c0,0.1,0,0.2,0.1,0.3c0,0.1,0.2,0.2,0.4,0.2L118.9,156.8z M121.4,152.5
				c0-0.3,0-0.5,0.1-0.7c0.1-0.2,0.3-0.4,0.4-0.5c0.2-0.1,0.4-0.2,0.5-0.2s0.4-0.1,0.5-0.1c0.2,0,0.4,0,0.6,0c0.2,0,0.4,0.1,0.6,0.2
				c0.2,0.1,0.3,0.2,0.5,0.3c0.1,0.1,0.3,0.3,0.4,0.4c0.1,0.2,0.2,0.3,0.1,0.4c-0.1,0.1-0.1,0.1-0.3,0.1c-0.1,0-0.1-0.1-0.2-0.2
				s-0.2-0.2-0.3-0.4s-0.3-0.3-0.5-0.4c-0.2-0.1-0.5-0.2-0.8-0.2c-0.3,0-0.5,0-0.7,0.1c-0.2,0.1-0.4,0.2-0.5,0.4
				c-0.1,0.2-0.2,0.3-0.2,0.5c0,0.2,0.1,0.4,0.3,0.5c0.2,0.1,0.4,0.2,0.8,0.3c0.4,0.1,0.8,0.1,1.2,0.2c0.5,0.1,0.8,0.2,0.9,0.3
				c0.2,0.1,0.3,0.3,0.4,0.5c0.1,0.2,0.1,0.5,0.1,0.8c-0.1,0.2-0.1,0.4-0.2,0.5c-0.1,0.1-0.3,0.3-0.5,0.4c-0.2,0.1-0.5,0.2-1,0.2
				c-0.5,0-0.9,0-1.2-0.1c-0.3-0.1-0.6-0.3-0.8-0.5c-0.2-0.2-0.3-0.4-0.4-0.5c-0.1-0.2-0.1-0.3-0.1-0.3c0-0.1,0.1-0.1,0.1-0.1
				s0.2,0,0.3,0.1c0,0,0.1,0.1,0.2,0.3s0.3,0.4,0.5,0.5c0.2,0.1,0.4,0.2,0.6,0.3c0.2,0.1,0.5,0.1,0.7,0.1c0.3,0,0.5,0,0.8-0.1
				c0.2-0.1,0.4-0.2,0.5-0.4c0.1-0.1,0.2-0.3,0.2-0.5c0-0.2,0-0.4-0.1-0.5c-0.1-0.1-0.2-0.2-0.3-0.3c-0.2-0.1-0.4-0.2-0.7-0.2
				l-1.1-0.2c-0.3-0.1-0.5-0.1-0.7-0.2c-0.2-0.1-0.3-0.2-0.5-0.4C121.5,152.8,121.4,152.7,121.4,152.5L121.4,152.5z M127.7,151.5h-1
				c0,0-0.1,0-0.1,0c0,0-0.1-0.1-0.1-0.1c0-0.1,0-0.1,0.1-0.1c0,0,0.1-0.1,0.1-0.1h1.1v-1.3c0-0.1,0-0.2,0-0.2
				c0-0.1,0.1-0.1,0.1-0.1c0.1,0,0.1,0,0.2,0.1c0,0.1,0,0.1,0,0.2v1.3l1.5,0c0.1,0,0.1,0,0.2,0.1s0.1,0.1,0.1,0.1
				c0,0.1,0,0.1-0.1,0.1c0,0-0.1,0-0.1,0H128v3.7c0,0.2,0,0.3,0,0.3s0.1,0.1,0.1,0.1c0.1,0,0.2,0,0.4,0h0.7c0.1,0,0.2,0,0.3,0.1
				c0.1,0,0.1,0.1,0.1,0.2c0,0.1,0,0.1-0.1,0.1c0,0-0.1,0-0.3,0h-0.7c-0.2,0-0.3,0-0.5,0c-0.1,0-0.2-0.1-0.3-0.2
				c-0.1-0.1-0.1-0.2-0.1-0.2c0-0.1,0-0.2,0-0.4L127.7,151.5z M131.2,153.7c0,0.2,0,0.4,0,0.5c0,0.1,0.1,0.3,0.1,0.4
				c0.1,0.2,0.2,0.3,0.3,0.5c0.1,0.2,0.3,0.3,0.5,0.4c0.2,0.1,0.4,0.2,0.6,0.2c0.2,0,0.3,0.1,0.5,0.1c0.2,0,0.5,0,0.8-0.1
				c0.3-0.1,0.5-0.2,0.6-0.3c0.2-0.1,0.3-0.3,0.4-0.4c0.1-0.2,0.2-0.3,0.3-0.4c0.1-0.1,0.1-0.1,0.2,0c0.1,0,0.1,0.1,0.1,0.2
				c0,0.1,0,0.2-0.1,0.3c-0.2,0.2-0.3,0.4-0.4,0.5c-0.1,0.1-0.3,0.2-0.6,0.3c-0.3,0.1-0.6,0.2-0.9,0.2c-0.3,0-0.6,0-0.9-0.1
				c-0.3-0.1-0.5-0.2-0.7-0.3c-0.2-0.1-0.3-0.2-0.5-0.4c-0.1-0.2-0.3-0.3-0.3-0.5c-0.1-0.2-0.1-0.4-0.2-0.6c0-0.3-0.1-0.5-0.1-0.8
				c0-0.3,0.1-0.6,0.2-0.8c0.1-0.3,0.2-0.5,0.4-0.8c0.2-0.2,0.4-0.4,0.6-0.5c0.2-0.1,0.4-0.2,0.7-0.2c0.2-0.1,0.4-0.1,0.6-0.1
				c0.2,0,0.4,0,0.6,0.1s0.4,0.2,0.6,0.3s0.4,0.3,0.5,0.5s0.3,0.4,0.3,0.6c0.1,0.2,0.1,0.4,0.2,0.6c0.1,0.2,0.1,0.4,0.1,0.5
				c0,0.1-0.1,0.2-0.1,0.2c0,0-0.2,0-0.4,0L131.2,153.7 M131.2,153.3h4c0-0.2-0.1-0.4-0.2-0.5c-0.1-0.2-0.2-0.4-0.3-0.6
				c-0.2-0.2-0.4-0.4-0.6-0.5c-0.2-0.1-0.5-0.2-0.8-0.2c-0.3,0-0.6,0-0.9,0.1c-0.3,0.1-0.5,0.2-0.6,0.3c-0.1,0.1-0.3,0.3-0.4,0.5
				c-0.1,0.2-0.2,0.4-0.2,0.5L131.2,153.3L131.2,153.3z M137,151.9c0.1-0.2,0.2-0.3,0.3-0.4c0.1-0.1,0.2-0.2,0.3-0.2
				c0.1-0.1,0.3-0.1,0.5-0.2c0.3-0.1,0.6,0,0.8,0.1c0.3,0.1,0.4,0.2,0.5,0.4l0.2,0.3c0.1-0.2,0.3-0.3,0.4-0.4
				c0.1-0.1,0.2-0.2,0.4-0.3c0.1-0.1,0.3-0.1,0.6-0.2c0.3,0,0.5,0,0.7,0.1c0.2,0.1,0.4,0.2,0.5,0.3c0.1,0.1,0.2,0.3,0.3,0.5
				c0.1,0.2,0.1,0.4,0.1,0.7l0,3.3c0,0,0,0.1,0,0.1c0,0.1-0.1,0.1-0.1,0.1c-0.1,0-0.1,0-0.2-0.1c0-0.1-0.1-0.1-0.1-0.2v-3.2
				c0-0.3,0-0.6-0.1-0.8c-0.1-0.2-0.2-0.4-0.4-0.5c-0.2-0.1-0.4-0.1-0.6-0.1c-0.2,0-0.3,0.1-0.5,0.1c-0.2,0.1-0.3,0.2-0.4,0.3
				c-0.1,0.1-0.2,0.3-0.3,0.4c-0.1,0.2-0.1,0.4-0.1,0.6l0,3.1c0,0.1,0,0.1-0.1,0.2c0,0.1-0.1,0.1-0.2,0.1s-0.1,0-0.2-0.1
				c0-0.1,0-0.1,0-0.2v-3.1c0-0.2,0-0.4,0-0.5c0-0.1-0.1-0.3-0.2-0.5c-0.1-0.2-0.3-0.3-0.6-0.4c-0.3-0.1-0.5,0-0.8,0.1
				c-0.2,0.1-0.3,0.2-0.5,0.4s-0.2,0.3-0.3,0.5c0,0.2-0.1,0.3-0.1,0.5l0,3c0,0.1,0,0.1-0.1,0.2c0,0.1-0.1,0.1-0.2,0.1
				c-0.1,0-0.1,0-0.1-0.1c0,0,0-0.1,0-0.2l0-4.4c0-0.1,0-0.2,0-0.3c0,0,0.1-0.1,0.1-0.1c0.1,0,0.1,0,0.2,0.1c0,0.1,0,0.1,0,0.2
				L137,151.9z"/>
			<g id="XMLID_2372_">
				<path id="XMLID_2383_" class="st1" d="M128.3,56.9v-1.3l-1.3-0.4c-3.9-1.1-8-3.7-12-6.3c-5.3-3.4-10.3-6.6-15.2-6.6
					c-5.6,0-10.8,3.5-15.8,6.9c-3.7,2.5-7.5,5-11.3,6.1l-1.3,0.4l0,1.3c-0.2,12.8,1.4,22.7,4.8,31.1c4.4,10.7,11.9,18.5,22.8,23.8
					l0.9,0.4l0.9-0.4c10.9-5.4,18.4-13.2,22.8-23.9C126.9,79.6,128.4,69.7,128.3,56.9L128.3,56.9z M99.8,45.9c3.7,0,8.3,2.9,13.1,6
					c3.8,2.4,7.7,5,11.7,6.3c0.1,17.3-2.7,38.6-24.7,50C77.7,96.8,74.9,75.5,75,58.2c3.9-1.3,7.6-3.8,11.1-6.2
					C90.8,48.9,95.4,45.9,99.8,45.9L99.8,45.9z"/>
				<path id="XMLID_2373_" class="st1" d="M103.7,80.8l-0.8-1.6l0.9,2l0.6,1.6l0.2,1.6l0,0.3l0.1-1.4L103.7,80.8 M102.4,79.5l-1.1-2
					l0.3,0.7l0.7,1.3l0,0.2l0.2,0.1l0,0l0.1,0.1l0.1,0.3l0.4,0.4L102.4,79.5 M101.2,77.8l-0.5-0.7l1.3,2.4l0.6,1.2l0.3,0.6l0.2,0.1
					l-0.2-0.4l-0.9-1.6l-0.3-0.6l-0.1-0.1l-0.2-0.4L101.2,77.8L101.2,77.8 M103.6,76v0.2l0.3,0.5l0.7,1.3l0.9,1.8l0.6,2v0.5l0,0
					l0.1,0.1c0-0.1,0-0.2,0-0.4s-0.1-0.4-0.2-0.8l-0.1-0.8l-0.4-1.2l-0.5-1l-0.6-1.2l-0.6-0.8l-0.2-0.4
					C103.7,75.9,103.7,75.9,103.6,76C103.6,75.9,103.6,75.9,103.6,76 M102.8,77.5l-1.5-2.7l-0.2,0.2l0.8,1.5l-0.2,0v0.2l0.6,1.2
					l0.8,1.4l1.1,2.4l0.5,1.9l-0.1,0.9c0.2-0.2,0.4-0.5,0.4-0.9l0-0.1l-0.1,0l-0.2-1.4l-0.7-2.1L102.8,77.5 M99.1,74.6L99,74.5
					l0.2,0.7l3.4,6.1l1.1,2.7c0,0.4,0.1,0.7,0.3,0.9l0-1.2l-0.3-0.9l-0.2,0.2l-0.2-0.4l-0.5-1.3l-0.7-1.4h0l-0.3-0.6l0-0.2l-0.1,0
					l-0.6-1l0.1,0.1l-0.2-0.1l-0.4-0.9l-0.8-1.5L99.3,75l-0.2-0.2L99.1,74.6 M89.8,84.4l-0.3-0.1h0.3l0.3,0.1l0-0.1l0.8,0.3l0.2-0.1
					l3,0.5l2.1,0.2l0.1,0l0.5,0.1h-0.9l-1.2-0.1h-0.8L92.6,85L89.8,84.4 M90.3,86.2L90.3,86.2L90.3,86.2l0.4,0.1H92l-2.7-0.6
					l-0.2-0.2c-0.4-0.2-0.5-0.2-0.5-0.3l0,0c0,0,0,0,0.1,0c0,0,0.1,0,0.1,0c0,0,0.1,0.1,0.3,0.1l0.3-0.1l0.1,0l0-0.1l0.7,0.2
					l0.1-0.1l0.3,0.1h0.2l1,0.1l0,0.1l0.3,0l-0.3,0v-0.1c-0.4-0.1-0.7-0.2-1-0.3l-0.2,0l0-0.1l2.3,0.4h0.5l0-0.1l3.5,0.3l0.4,0
					l1.8-0.1l0-0.1l2.3-0.1l1.5-0.2l0.4-0.1l-0.5-1.9l-1.4-3L98,74.6l-1.3-2.5l0.2,0.3l1.2,2l1.1,1.9l0.5,1.2l1.2,1.9l0.5,0.8
					l0.3,0.7l0,0.3l0.1,0.1l0,0.1l0.6,1.3l0.3,0.4l-0.2,0.1l0.6,1.9l0.1,0.1l0.3-0.1l-0.1-0.1l0.1-0.2l-0.1-0.8l-0.1,0l-0.1-0.4
					l-0.1,0l0-0.3l0,0l-0.1-0.3l-0.1-0.1l0-0.2h0.1l-0.1-0.4l-0.9-1.9l-0.5-1l-0.7-1.2l-0.6-1l-0.9-1.6l-0.8-1.4L98,73.6l-1-1.9
					l-1.1-2.2L95.3,68l-0.4-1.2L94.7,65l0.2,0.3l0.2,0.1l0,0.3l0.5,0.4L95.3,65l0.1,0l0-1.3l0.6,1.6v-0.2c0,0,0-0.1,0-0.1
					c-0.1-0.2-0.1-0.3-0.1-0.4l0.1-1.6l0.6-0.6l0.4-1l0.3-0.3l0.1-0.3h0.1l0.3-0.2l0.2-0.3l-0.3,1.5l0.2,1.7l1.3-1.5l0.6-0.8
					l0.1-0.2l-0.1-0.1c0.3-0.4,0.7-0.7,1.2-0.9l1.1-0.4l0.2-0.2h-0.2l0.1-0.1l0-0.1l0.2-0.1l0.4-0.1l0.2,0l0.1,0l0.4-0.1l0.2,0
					c0.4-0.1,0.6-0.2,0.7-0.2c0.1,0,0.1-0.1,0.2-0.2l-0.9,0l0.6-0.1l2,0.2l1.2,0.4l1.2,0.7l0,0.1l0.2,0l0.2,0.2l-1.5-1l-0.2-0.1
					l-0.6-0.1l0.5,0.3l1,0.6l0.9,0.8l0.3,0.3l-0.2,0l0.5,0.7l-0.1,0.1l-0.1-0.2l-0.2-0.1l-1-1.1l1,1.4l0.6,0.9l0.2,0.2l0.2,0
					l0.3,0.7L111,66l-0.2-0.1l-0.3-1l-0.5-1.4l-0.1,0l0.7,2.3l0.1,0.5l-0.2,0l-0.1-0.1l-0.1,0.2l0.1,0.3l-0.2,0.6l0,0.3l0-0.2
					l-0.2-0.4l-0.6-1.2l-0.1,0.1l0.3,1.1c0,0,0,0,0,0.1c0,0.1,0,0.1,0,0.2c0,0.1,0.1,0.3,0.1,0.7c-0.1-0.1-0.1-0.2-0.2-0.4
					c-0.2-0.6-0.4-1-0.4-1l0,0.2l0-0.2l-0.4-0.3l-0.2,0.1l0.4,1l-0.2,0l-0.6-1.1l0.1,0.4l0.3,0.8l-0.2-0.2l-0.4-1l0,0l-0.2-0.2
					l0-0.1l-0.1,0.1l-0.2-0.4l-0.7-0.6l-0.8-0.9l-0.7-0.6H105l-0.9-0.5l-1.4-0.4h-0.6h-1.8l-0.5,0.2c-0.1,0-0.2,0.1-0.3,0.1
					c-0.1,0-0.3,0-0.5-0.1l-0.8,0.9l0.1,0l0,1.1l0.7,1.7l0.8,1.8l2.2,3.9l0.8,1.3l1.7,3l0.4,0.8l1,2l0.1,0.4l0.4,1.6l0.1,0.3l0,1.4
					l-0.6,1.1l-0.4,0.5l0.2,0.1l-0.3,0.4l-1,0.8l-0.1,0.2l0.2,0v0.1l-1.5,0.9l0,0.1l-0.6,0.4l-0.2,0.1l-3.1,1.1l-0.4,0l0,0.1
					l-0.3-0.1L97.9,89h-0.1l-0.1,0l-1.1,0.1L95,89.3l-0.4,0l-1.9-0.1l1.4,0h1.7L94.1,89l-1-0.2l-0.4,0l-0.4-0.1l0.1-0.1l1.9,0.2H95
					c0.2,0,0.3,0,0.4,0c0.1,0,0.3,0,0.4-0.1h0.8l0.9-0.2l0.2-0.1l0.8-0.1l0,0l-1,0.1l-0.5,0l-1.9,0.2h-1.4l-0.4-0.3l-0.9-0.1v-0.1
					h-0.4L91.7,88l-1.4-0.3l-0.4-0.1l-1-0.4l3.9,0.4l0.7,0l0-0.1l-0.9-0.1L89.7,87l-0.1-0.1l0.7,0.1v-0.1l0.8,0.1l-1.8-0.4l-0.1-0.2
					l-1.4-0.3l0.3,0l0.1-0.2l0.8,0.2l-1.2-0.4l1.8,0.3L90.3,86.2z"/>
			</g>
		</g>
	</g>
</g>
</svg>
