<?xml version="1.0" encoding="utf-8"?>
<!-- Generator: Adobe Illustrator 19.0.0, SVG Export Plug-In . SVG Version: 6.00 Build 0)  -->
<svg version="1.1" id="圖層_1" xmlns="http://www.w3.org/2000/svg" xmlns:xlink="http://www.w3.org/1999/xlink" x="0px" y="0px"
	 width="200px" height="200px" viewBox="0 0 200 200" style="enable-background:new 0 0 200 200;" xml:space="preserve">
<style type="text/css">
	.st0{fill:#171818;}
	.st1{fill:#FFFFFF;}
</style>
<g id="XMLID_2235_">
	<rect id="XMLID_2214_" class="st0" width="200" height="200"/>
	<g id="XMLID_2238_">
		<g id="XMLID_2239_">
			<path id="XMLID_2245_" class="st1" d="M72,116.4H52.2c-0.3,0-0.6,0.1-0.9,0.4c-0.3,0.2-0.7,0.6-1,0.9s-0.6,0.8-0.8,1.2
				c-0.2,0.4-0.3,0.8-0.3,1.1v12.3c0,0.2-0.1,0.3-0.2,0.4c-0.1,0.1-0.3,0.2-0.4,0.2c-0.2,0-0.3,0.1-0.5,0.1s-0.2,0-0.3,0v5.5h4.8
				c0.2,0,0.4-0.1,0.6-0.2c0.2-0.2,0.4-0.3,0.6-0.6s0.3-0.5,0.4-0.7c0.1-0.3,0.2-0.5,0.2-0.7V122H58v16.3h5.2V122h3.6v16.3H72V116.4
				z M75.2,129.9v8.5h12.1V133h-6.7v-3.1h2.6v-5.7h-2.6V122h6.7v-5.6H75.2v7.9h-1.4v5.7L75.2,129.9z M89.4,116.4v22H101V133h-6.5
				v-16.6H89.4z M103.1,129.9v-5.5h1.4V120c0-0.3,0.1-0.7,0.3-1.1c0.2-0.4,0.4-0.8,0.7-1.2c0.3-0.4,0.6-0.7,1-0.9
				c0.4-0.3,0.7-0.4,1.1-0.4h8.4c0.8,0.3,1.4,0.7,1.8,1.3c0.4,0.6,0.7,1.4,0.8,2.2v18.4h-5.2v-8.5h-3.6v6.2c0,0.2-0.1,0.5-0.2,0.7
				c-0.1,0.3-0.2,0.5-0.4,0.7c-0.2,0.2-0.4,0.4-0.6,0.6s-0.4,0.2-0.6,0.2h-4.8v-5.5c0,0,0.1,0,0.3-0.1c0.2,0,0.3-0.1,0.5-0.1
				c0.2-0.1,0.3-0.1,0.4-0.2c0.1-0.1,0.2-0.2,0.2-0.2v-2.3L103.1,129.9 M109.6,124.4h3.6V122h-3.6V124.4z M120.6,133v5.4h11.3
				c0.3,0,0.5-0.1,0.8-0.3c0.3-0.2,0.5-0.4,0.7-0.7c0.2-0.3,0.4-0.6,0.5-0.9c0.1-0.3,0.2-0.7,0.2-1v-7.9c0-0.3-0.1-0.6-0.2-0.9
				c-0.1-0.3-0.3-0.6-0.5-0.9c-0.2-0.3-0.4-0.5-0.7-0.7c-0.3-0.2-0.5-0.3-0.7-0.3h-6.2V122h7.6v-5.6h-10.2c-0.2,0-0.5,0.1-0.8,0.2
				c-0.3,0.2-0.6,0.4-0.8,0.6c-0.3,0.3-0.5,0.5-0.7,0.8c-0.2,0.3-0.3,0.6-0.3,0.9v8.9c0,0.2,0.1,0.5,0.2,0.7
				c0.1,0.3,0.3,0.5,0.5,0.7c0.2,0.2,0.4,0.4,0.6,0.5c0.2,0.1,0.4,0.2,0.6,0.2h6.3v2.9L120.6,133z M137.3,124.5v-8.1h10.4
				c0.2,0,0.4,0.1,0.7,0.3c0.2,0.2,0.5,0.4,0.7,0.7c0.2,0.3,0.4,0.6,0.5,0.9c0.1,0.3,0.2,0.6,0.2,0.9v7.9c0,0.3-0.1,0.7-0.2,1
				c-0.1,0.3-0.3,0.7-0.5,0.9c-0.2,0.3-0.5,0.5-0.7,0.7c-0.3,0.2-0.5,0.3-0.8,0.3H147l5.2,8.4H146l-3.5-5.6v5.6h-5.2V130h-1.5v-5.5
				H137.3 M142.6,122v2.5h1.9V122H142.6z"/>
			<g id="XMLID_2240_">
				<path id="XMLID_2242_" class="st1" d="M135,79.3h-13.2c-2-10.1-10.8-17.7-21.5-17.7c-10.6,0-19.5,7.6-21.4,17.7H65v1.8h13.6
					c-0.1,0.8-0.1,1.6-0.1,2.4c0,1.2,0.1,2.4,0.3,3.6H65v1.8h14.1c2.4,9.5,11,16.5,21.2,16.5s18.8-7,21.2-16.5H135v-1.8h-13.2
					c0.2-1.2,0.3-2.4,0.3-3.6c0-0.8,0-1.6-0.1-2.4h13L135,79.3z M101.2,103.1h-1.8C89,102.6,80.7,94,80.7,83.5
					c0-10.8,8.8-19.6,19.6-19.6c10.8,0,19.6,8.8,19.6,19.6C119.9,94,111.6,102.6,101.2,103.1L101.2,103.1z"/>
				<path id="XMLID_2216_" class="st1" d="M102.9,93.2h-5.2v-0.1h-0.1V78.1h-4.6l-0.1,15.2h-5.2V74.1l25.1,0l0.1-0.1h0l0,0.1
					l-0.1,19.2h-5.2l0-14.4h0v-0.7h-4.7L102.9,93.2z"/>
			</g>
		</g>
	</g>
</g>
</svg>
