<?xml version="1.0" encoding="utf-8"?>
<!-- Generator: Adobe Illustrator 19.0.0, SVG Export Plug-In . SVG Version: 6.00 Build 0)  -->
<svg version="1.1" id="圖層_1" xmlns="http://www.w3.org/2000/svg" xmlns:xlink="http://www.w3.org/1999/xlink" x="0px" y="0px"
	 width="200px" height="200px" viewBox="0 0 200 200" style="enable-background:new 0 0 200 200;" xml:space="preserve">
<style type="text/css">
	.st0{fill:#2355A5;}
	.st1{fill:#FFFFFF;}
</style>
<g id="XMLID_2588_">
	<rect id="XMLID_2539_" class="st0" width="200" height="200"/>
	<g id="XMLID_2540_">
		<g id="XMLID_2541_">
			<path id="XMLID_2578_" class="st1" d="M31.9,144.9V124H28v20.9H31.9z M53.9,145h3.9V124h-4.5l-6.5,9l-6.5-9h-4.5V145h3.9v-15.2
				l6.7,9.1H47l6.8-9.1L53.9,145z M78.1,144.9h4.3L73.1,124h-4.3l-9.4,20.9h4.3l1.8-3.9h10.9L78.1,144.9z M74.8,137.3H67l3.9-8.9
				L74.8,137.3z M101.9,126.6c-2.2-2.1-5-3.2-7.8-3.2c-7.4,0-11.1,5.4-11.1,11.3c0,5.5,3.2,10.7,11.1,10.7c3.7,0,6.3-1.4,8.3-3.8
				v-8.8h-9v3.5h5.4v3.7c-1.6,1.3-3.1,1.7-4.7,1.7c-5.2,0-7.2-3.6-7.2-7c0-4.3,2.7-7.7,7.2-7.7c1.8,0,3.9,0.7,5.3,2.1L101.9,126.6z
				 M121.4,139.6c-1.4,1.4-3.4,2.1-5.3,2.1c-5.2,0-7.2-3.6-7.2-7.1c0-3.5,2.1-7.3,7.2-7.3c1.8,0,3.7,0.6,5.1,2l2.6-2.5
				c-2.2-2.1-4.8-3.2-7.7-3.2c-7.6,0-11.1,5.6-11.1,11c0,5.4,3.3,10.8,11.1,10.8c3,0,5.8-1,7.9-3.1L121.4,139.6z M136.2,123.6
				c-7.2,0-10.8,5.5-10.8,11c0,5.5,3.4,10.8,10.8,10.8c7.4,0,10.7-5.4,10.7-10.8C147,129.1,143.4,123.6,136.2,123.6z M136.2,127.2
				c4.9,0,6.9,3.9,6.8,7.5c-0.1,3.4-1.9,7.1-6.8,7.1c-4.9,0-6.8-3.7-6.9-7.1C129.2,131.2,131.3,127.2,136.2,127.2z M168.1,145h3.9
				V124h-4.5l-6.5,9l-6.5-9h-4.5V145h3.9v-15.2l6.7,9.1h0.8l6.8-9.1V145z"/>
			<g id="XMLID_2545_">
				<path id="XMLID_2574_" class="st1" d="M33.4,157.6V150H33c-0.1,0.8-0.1,1.4-0.2,2.1c-0.1,0.6-0.2,1.2-0.3,1.8
					c-0.1,0.6-0.3,1.1-0.4,1.6s-0.3,1-0.4,1.5l-0.6-0.2c0.2-0.5,0.3-1,0.4-1.5c0.1-0.5,0.3-1,0.4-1.6c0.1-0.5,0.2-1.1,0.3-1.7
					c0.1-0.6,0.2-1.3,0.2-2h-1.3v-0.6h5.1v0.6H34v7.6L33.4,157.6 M28.2,149.7h2.5v0.6h-1v2.6h0.9v0.6h-0.9v2.6l1-0.3l0.1,0.6
					l-2.8,0.7l-0.1-0.6l1.2-0.3v-2.7h-0.9v-0.6h0.9v-2.6h-0.9L28.2,149.7 M34.9,150.8l1.3,6l-0.6,0.1l-1.3-6L34.9,150.8z"/>
				<path id="XMLID_2568_" class="st1" d="M64.6,153.4h2.5v-0.8h-1.3c-0.1,0-0.3,0-0.4-0.1c-0.1-0.1-0.2-0.1-0.3-0.2
					c-0.1-0.1-0.2-0.2-0.2-0.3c-0.1-0.1-0.1-0.2-0.1-0.4v-1.1c0-0.1,0-0.3,0.1-0.4c0.1-0.1,0.1-0.2,0.2-0.3c0.1-0.1,0.2-0.2,0.3-0.2
					c0.1-0.1,0.2-0.1,0.4-0.1H69c0.1,0,0.3,0,0.4,0.1c0.1,0.1,0.2,0.1,0.3,0.2c0.1,0.1,0.2,0.2,0.2,0.3c0.1,0.1,0.1,0.2,0.1,0.4v1.1
					c0,0.1,0,0.3-0.1,0.4c-0.1,0.1-0.1,0.2-0.2,0.3c-0.1,0.1-0.2,0.2-0.3,0.2c-0.1,0.1-0.2,0.1-0.4,0.1h-1.3v0.8h2.5v0.6h-2.5v3.6
					h-0.6V154h-2.5V153.4 M65.4,151.6c0,0.1,0,0.2,0.1,0.3c0.1,0.1,0.2,0.1,0.3,0.1H69c0.1,0,0.2,0,0.3-0.1s0.1-0.2,0.1-0.3v-1.1
					c0-0.1,0-0.2-0.1-0.3c-0.1-0.1-0.2-0.1-0.3-0.1h-3.2c-0.1,0-0.2,0-0.3,0.1c-0.1,0.1-0.1,0.2-0.1,0.3V151.6 M61.9,150.9l2-1.6
					v8.2h-0.6v-6.9c-0.2,0.1-0.3,0.3-0.5,0.4c-0.2,0.1-0.3,0.3-0.5,0.4L61.9,150.9 M69.2,154.3l1,3.1l-0.6,0.2l-1-3.1L69.2,154.3
					 M66.1,154.4c-0.1,0.5-0.2,1.1-0.3,1.6c-0.2,0.5-0.4,1-0.7,1.5l-0.5-0.3c0.3-0.5,0.5-0.9,0.6-1.4c0.1-0.5,0.2-1,0.3-1.5
					L66.1,154.4z"/>
				<path id="XMLID_2565_" class="st1" d="M103.7,151l-2,2l2.2,3.9l-0.5,0.3l-3-5.4v4.7c0,0.2,0,0.3-0.1,0.4s-0.1,0.3-0.2,0.4
					s-0.2,0.2-0.4,0.2c-0.1,0.1-0.3,0.1-0.4,0.1h-0.7v-0.6h0.7c0.1,0,0.3-0.1,0.4-0.2c0.1-0.1,0.2-0.2,0.2-0.4v-7.2h0.6v1.3l1.1,1.9
					l1.9-1.9L103.7,151 M96.2,151h3.1c-0.1,0.7-0.3,1.4-0.5,2c-0.2,0.6-0.4,1.2-0.7,1.7c-0.2,0.5-0.5,1-0.8,1.4
					c-0.3,0.4-0.6,0.8-0.9,1.1l-0.4-0.4c0.3-0.3,0.5-0.6,0.8-0.9c0.2-0.3,0.5-0.7,0.7-1.1c0.2-0.4,0.4-0.9,0.6-1.4
					c0.2-0.5,0.3-1,0.4-1.6h-2.4L96.2,151z"/>
				<path id="XMLID_2555_" class="st1" d="M131.6,152.8c-0.1,0-0.3,0-0.4-0.1c-0.1-0.1-0.2-0.1-0.3-0.2c-0.1-0.1-0.2-0.2-0.2-0.3
					c-0.1-0.1-0.1-0.2-0.1-0.4v-1.6c0-0.1,0-0.3,0.1-0.4s0.1-0.2,0.2-0.3c0.1-0.1,0.2-0.2,0.3-0.2c0.1-0.1,0.2-0.1,0.4-0.1h4.7
					c0.1,0,0.3,0,0.4,0.1c0.1,0.1,0.2,0.1,0.3,0.2c0.1,0.1,0.2,0.2,0.2,0.3c0.1,0.1,0.1,0.2,0.1,0.4v1.6c0,0.1,0,0.3-0.1,0.4
					c-0.1,0.1-0.1,0.2-0.2,0.3c-0.1,0.1-0.2,0.2-0.3,0.2c-0.1,0.1-0.2,0.1-0.4,0.1H131.6 M130.9,157.6c-0.1,0-0.3,0-0.4-0.1
					s-0.2-0.1-0.3-0.2c-0.1-0.1-0.2-0.2-0.2-0.3c-0.1-0.1-0.1-0.2-0.1-0.4v-2.4c0-0.1,0-0.3,0.1-0.4s0.1-0.2,0.2-0.3
					s0.2-0.2,0.3-0.2c0.1-0.1,0.2-0.1,0.4-0.1h1.8c0.1,0,0.3,0,0.4,0.1c0.1,0.1,0.2,0.1,0.3,0.2s0.2,0.2,0.2,0.3
					c0.1,0.1,0.1,0.2,0.1,0.4v2.4c0,0.1,0,0.3-0.1,0.4c-0.1,0.1-0.1,0.2-0.2,0.3c-0.1,0.1-0.2,0.2-0.3,0.2c-0.1,0.1-0.2,0.1-0.4,0.1
					H130.9 M135.1,157.6c-0.1,0-0.3,0-0.4-0.1s-0.2-0.1-0.3-0.2c-0.1-0.1-0.2-0.2-0.2-0.3c-0.1-0.1-0.1-0.2-0.1-0.4v-2.4
					c0-0.1,0-0.3,0.1-0.4c0.1-0.1,0.1-0.2,0.2-0.3s0.2-0.2,0.3-0.2c0.1-0.1,0.2-0.1,0.4-0.1h1.8c0.1,0,0.3,0,0.4,0.1
					c0.1,0.1,0.2,0.1,0.3,0.2s0.2,0.2,0.2,0.3c0.1,0.1,0.1,0.2,0.1,0.4v2.4c0,0.1,0,0.3-0.1,0.4c-0.1,0.1-0.1,0.2-0.2,0.3
					c-0.1,0.1-0.2,0.2-0.3,0.2c-0.1,0.1-0.2,0.1-0.4,0.1H135.1 M131.2,150.8h5.4v-0.5c0-0.1,0-0.2-0.1-0.3c-0.1-0.1-0.1-0.1-0.3-0.1
					h-4.7c-0.1,0-0.2,0-0.3,0.1c-0.1,0.1-0.1,0.2-0.1,0.3L131.2,150.8 M136.3,152.2c0.1,0,0.2,0,0.3-0.1c0.1-0.1,0.1-0.2,0.1-0.3
					v-0.5h-5.4v0.5c0,0.1,0,0.2,0.1,0.3c0.1,0.1,0.2,0.1,0.3,0.1H136.3 M132.7,157c0.1,0,0.2,0,0.3-0.1c0.1-0.1,0.1-0.2,0.1-0.3
					v-0.9h-2.6v0.9c0,0.1,0,0.2,0.1,0.3c0.1,0.1,0.2,0.1,0.3,0.1H132.7 M136.9,157c0.1,0,0.2,0,0.3-0.1c0.1-0.1,0.1-0.2,0.1-0.3
					v-0.9h-2.5v0.9c0,0.1,0,0.2,0.1,0.3c0.1,0.1,0.2,0.1,0.3,0.1H136.9 M130.6,155.1h2.6v-0.9c0-0.1,0-0.2-0.1-0.3
					c-0.1-0.1-0.2-0.1-0.3-0.1h-1.8c-0.1,0-0.2,0-0.3,0.1c-0.1,0.1-0.1,0.2-0.1,0.3V155.1 M134.7,155.1h2.5v-0.9
					c0-0.1,0-0.2-0.1-0.3c-0.1-0.1-0.2-0.1-0.3-0.1h-1.8c-0.1,0-0.2,0-0.3,0.1c-0.1,0.1-0.1,0.2-0.1,0.3L134.7,155.1z"/>
				<path id="XMLID_2546_" class="st1" d="M169.4,149.3v1.2h1.4c0.2,0,0.3,0,0.4,0.1c0.1,0.1,0.3,0.1,0.4,0.2
					c0.1,0.1,0.2,0.2,0.2,0.4c0.1,0.1,0.1,0.3,0.1,0.4v4.8c0,0.2,0,0.3-0.1,0.4c-0.1,0.1-0.1,0.3-0.2,0.4c-0.1,0.1-0.2,0.2-0.4,0.2
					c-0.1,0.1-0.3,0.1-0.4,0.1h-3.5c-0.2,0-0.3,0-0.4-0.1c-0.1-0.1-0.3-0.1-0.4-0.2c-0.1-0.1-0.2-0.2-0.2-0.4
					c-0.1-0.1-0.1-0.3-0.1-0.4v-4.8c0-0.2,0-0.3,0.1-0.4c0.1-0.1,0.1-0.3,0.2-0.4c0.1-0.1,0.2-0.2,0.4-0.2s0.3-0.1,0.4-0.1h1.4v-1.2
					H169.4 M166.9,153.7h2v-2.7h-1.4c-0.2,0-0.3,0.1-0.4,0.2c-0.1,0.1-0.2,0.2-0.2,0.4V153.7 M169.4,151.1v2.7h2v-2.1
					c0-0.2-0.1-0.3-0.2-0.4c-0.1-0.1-0.2-0.2-0.4-0.2H169.4 M168.8,156.9v-2.6h-2v2.1c0,0.1,0.1,0.3,0.2,0.4
					c0.1,0.1,0.2,0.2,0.4,0.2H168.8 M170.9,156.9c0.1,0,0.3-0.1,0.4-0.2c0.1-0.1,0.2-0.2,0.2-0.4v-2.1h-2v2.6H170.9 M165.7,154.7
					l-1.5,2.9l-0.6-0.3l1.5-2.9L165.7,154.7 M164.9,149.5v1.7h-0.6v-1.7H164.9 M164.9,152v1.7h-0.6V152H164.9z"/>
			</g>
			<g id="XMLID_2542_">
				<path id="XMLID_2544_" class="st1" d="M134.6,72.3l-0.1-20l-17.3-9.9L100,52.5l17.3,9.9l0.1,20l-17.3,10.1l-17.3-9.9l0.1,20
					l17.3,9.9l17.3-10.1l-0.1-20L134.6,72.3z"/>
				<path id="XMLID_2543_" class="st1" d="M100,52.5l-17.3-9.9L65.4,52.6l0.1,20l17.3,9.9l-0.1-20L100,52.5z"/>
			</g>
		</g>
	</g>
</g>
</svg>
