<?xml version="1.0" encoding="utf-8"?>
<!-- Generator: Adobe Illustrator 19.0.0, SVG Export Plug-In . SVG Version: 6.00 Build 0)  -->
<svg version="1.1" id="圖層_1" xmlns="http://www.w3.org/2000/svg" xmlns:xlink="http://www.w3.org/1999/xlink" x="0px" y="0px"
	 width="200px" height="200px" viewBox="0 0 200 200" style="enable-background:new 0 0 200 200;" xml:space="preserve">
<style type="text/css">
	.st0{fill:url(#XMLID_118_);}
	.st1{fill:#FFFFFF;}
</style>
<g id="XMLID_2703_">
	<linearGradient id="XMLID_118_" gradientUnits="userSpaceOnUse" x1="-9.5943" y1="11.9406" x2="209.5943" y2="188.0594">
		<stop  offset="0" style="stop-color:#434343"/>
		<stop  offset="1" style="stop-color:#000000"/>
	</linearGradient>
	<rect id="XMLID_2661_" class="st0" width="200" height="200"/>
	<g id="XMLID_2662_">
		<g id="XMLID_2663_">
			<g id="XMLID_2675_">
				<path id="XMLID_2694_" class="st1" d="M50,136l-3.8,3.4h-5l5.6-5h-5.1v-2.6H48v-1.4h-5.8v-2.5h16.3l-1.4,2.5h-5.3v1.4h6.7
					l-1.5,2.6h-3.8l5.7,5h-5L50,136 M43.2,140.5h3.6l-2,9.6h-3.7L43.2,140.5 M58.4,150.7h-3.9l-2.1-4.9h3.8L58.4,150.7 M57.7,144.7
					h-3.8l-1.8-4.3h3.8L57.7,144.7 M48,140h3.7v7.8l-3.2,2.8h-2.6v-2.7H48L48,140 M38.5,134.3c0.4,0,0.7,0.1,1.1,0.3
					c0.4,0.2,0.6,0.5,0.9,0.8s0.3,0.7,0.3,1.2c0,0.4-0.1,0.8-0.3,1.2c-0.2,0.4-0.5,0.6-0.8,0.8c-0.4,0.2-0.7,0.3-1.1,0.3
					c-0.4,0-0.8-0.1-1.1-0.3c-0.4-0.2-0.6-0.5-0.8-0.8c-0.2-0.4-0.3-0.7-0.3-1.2s0.1-0.8,0.3-1.1c0.2-0.4,0.5-0.7,0.9-0.9
					C37.8,134.4,38.1,134.3,38.5,134.3 M38.5,127.5c0.4,0,0.7,0.1,1.1,0.3c0.4,0.2,0.6,0.5,0.8,0.8c0.2,0.4,0.3,0.8,0.3,1.2
					c0,0.4-0.1,0.8-0.3,1.1c-0.2,0.3-0.5,0.6-0.8,0.8c-0.3,0.2-0.7,0.3-1.1,0.3c-0.4,0-0.8-0.1-1.1-0.3c-0.4-0.2-0.6-0.5-0.8-0.8
					c-0.2-0.4-0.3-0.7-0.3-1.1c0-0.4,0.1-0.8,0.3-1.1c0.2-0.4,0.5-0.6,0.8-0.8S38.1,127.5,38.5,127.5 M36.7,141.3h3.6v7.9l-3.6,1.6
					V141.3z"/>
				<path id="XMLID_2685_" class="st1" d="M88.4,130.3l-0.5,1.2h5l0,8.1l-3.3,2.9l-1.1,0l0,5.5l-2.7,2.7H84V148h1.1v-5.5h-4v-10.9
					H84l0.5-1.2h-4.7v19.3l-3.3,1.6v-23.5h16.8l-1.2,2.6H88.4 M84.4,134.1v1.5h5l-1.2,2.5h-3.8v1.8h5.1v-5.8H84.4 M73.2,134.5
					c0.4,0,0.7,0.1,1.1,0.3c0.4,0.2,0.6,0.5,0.9,0.8c0.2,0.4,0.3,0.8,0.3,1.2c0,0.4-0.1,0.8-0.3,1.1c-0.2,0.4-0.5,0.6-0.8,0.8
					c-0.4,0.2-0.7,0.3-1.1,0.3c-0.4,0-0.8-0.1-1.1-0.3c-0.4-0.2-0.6-0.5-0.8-0.9c-0.2-0.4-0.3-0.7-0.3-1.2c0-0.4,0.1-0.8,0.3-1.1
					c0.2-0.4,0.5-0.7,0.8-0.9C72.4,134.6,72.8,134.5,73.2,134.5 M73.2,127.7c0.4,0,0.7,0.1,1.1,0.3c0.4,0.2,0.6,0.5,0.9,0.8
					c0.2,0.4,0.3,0.7,0.3,1.2c0,0.4-0.1,0.8-0.3,1.1c-0.2,0.4-0.5,0.6-0.8,0.8c-0.3,0.2-0.7,0.3-1.1,0.3c-0.4,0-0.8-0.1-1.1-0.3
					c-0.4-0.2-0.6-0.5-0.8-0.8c-0.2-0.3-0.3-0.7-0.3-1.2c0-0.4,0.1-0.8,0.3-1.1c0.2-0.4,0.5-0.6,0.8-0.8
					C72.4,127.8,72.8,127.7,73.2,127.7 M71.4,141.5H75v7.9l-3.6,1.6V141.5 M91.9,143.3l1.2,7.3H90l-1.2-7.3H91.9 M84.8,143.3
					l-1.5,7.3h-3.1l1.5-7.3H84.8z"/>
				<path id="XMLID_2680_" class="st1" d="M122.9,150.6v-2.8h1.8v-16.5h-5.9l-0.7,2.4h-3.6l1.6-6.1h3.6l-0.3,1h8.8v19l-3.3,3.1
					L122.9,150.6 M113.6,149.5l3.2-14.9h3.3l-3.1,14.9H113.6 M113,135.8h1.8L113,139v10.7l-3.4,1.4v-6.4l-0.6,1h-3.8l4.3-7.2v-5.3
					h-0.9l-0.3,3.4h-3.3l0.8-8l3.2,0l-0.2,1.8h0.6v-2.7h3.4v2.7h1.9l-1.2,2.8H113L113,135.8 M117.9,149.5l3.1-14.9h3.3l-3,14.9
					H117.9z"/>
				<path id="XMLID_2676_" class="st1" d="M140.6,147.5h6.3v-20.2h3.8v20.2h1.8v-20.2h3.8v20.2h7.4l-1.6,3h-21.5L140.6,147.5
					 M162.6,128.4l-2.1,15.9h-3.5l2.2-15.9H162.6 M140.7,128.4h3.5l2.2,15.9h-3.5L140.7,128.4z"/>
			</g>
			<g id="XMLID_2664_">
				<path id="XMLID_2672_" class="st1" d="M99.7,48.8c-19.3,0-35,15.7-35,35s15.7,35,35,35s35-15.7,35-35S119.1,48.8,99.7,48.8z
					 M99.7,116.5c-18.1,0-32.8-14.7-32.8-32.8S81.7,51,99.7,51s32.8,14.7,32.8,32.8C132.5,101.9,117.9,116.5,99.7,116.5z"/>
				<path id="XMLID_2669_" class="st1" d="M129.4,77.9c-1.3-6.7-4.9-12.9-10.2-17.4c-5.4-4.5-12.2-7-19.3-7S86.1,56,80.7,60.6
					c-5.3,4.5-8.9,10.6-10.2,17.3h-4.7v0.8h13.1v-0.8H73c2.6-12.7,14-22,27-22c13,0,24.4,9.2,27,22h-6.3v0.8h13.1v-0.8L129.4,77.9z
					 M127.8,77.9c-2.6-13.2-14.3-22.8-27.9-22.8c-13.5,0-25.2,9.6-27.9,22.8h-0.7C74.1,64.3,86,54.4,100,54.4
					c13.9,0,25.9,9.9,28.6,23.5H127.8z"/>
				<path id="XMLID_2666_" class="st1" d="M70.1,89.8c1.3,6.7,4.9,12.9,10.2,17.4c5.4,4.5,12.2,7.1,19.3,7.1s13.9-2.5,19.3-7.1
					c5.3-4.5,8.9-10.6,10.2-17.4h4.7V89h-13.1v0.8h5.9c-2.6,12.8-13.9,22-27,22c-13,0-24.4-9.2-27-22h6.3V89h-13v0.8H70.1z
					 M71.7,89.8c2.6,13.2,14.3,22.8,27.9,22.8c13.5,0,25.2-9.6,27.9-22.8h0.7c-2.6,13.6-14.6,23.5-28.6,23.5
					c-13.9,0-25.9-9.9-28.6-23.5H71.7z"/>
				<path id="XMLID_2665_" class="st1" d="M104,100h-8.4V76.3h-7.5v-8.5h23.3v8.5H104V100z"/>
			</g>
		</g>
	</g>
</g>
</svg>
